<svg width="35" height="35" viewBox="0 0 35 35" fill="none" xmlns="http://www.w3.org/2000/svg">
<path fill-rule="evenodd" clip-rule="evenodd" d="M5.83331 14.5833C5.83331 8.14 11.0567 2.91666 17.5 2.91666C23.9433 2.91666 29.1666 8.14 29.1666 14.5833C29.1666 20.0615 26.5071 22.2046 24.0278 24.2025C22.4018 25.5128 20.8533 26.7607 20.1833 28.8458L19.4396 31.0917C19.231 31.712 18.6348 32.1174 17.9812 32.0833H17.1646C16.511 32.1174 15.9148 31.712 15.7062 31.0917L14.9625 28.8458C14.2656 26.7668 12.6955 25.5202 11.0504 24.2141C8.52976 22.2128 5.83331 20.072 5.83331 14.5833ZM13.125 14.5833C13.125 16.9996 15.0837 18.9583 17.5 18.9583C18.6603 18.9583 19.7731 18.4974 20.5936 17.6769C21.414 16.8564 21.875 15.7436 21.875 14.5833C21.875 12.1671 19.9162 10.2083 17.5 10.2083C15.0837 10.2083 13.125 12.1671 13.125 14.5833Z" fill="#499960"/>
</svg>
