<svg width="20" height="18" viewBox="0 0 20 18" fill="none" xmlns="http://www.w3.org/2000/svg">
<path fill-rule="evenodd" clip-rule="evenodd" d="M17.5 2H2.5C2.22386 2 2 1.77614 2 1.5V0.5C2 0.223858 2.22386 0 2.5 0H17.5C17.7761 0 18 0.223858 18 0.5V1.5C18 1.77614 17.7761 2 17.5 2ZM19.79 7.58L18.28 4.58C18.1089 4.2405 17.7602 4.02735 17.38 4.03H2.62C2.23984 4.02735 1.89107 4.2405 1.72 4.58L0.21 7.58C0.0722083 7.85647 0.000329687 8.1611 0 8.47V9C0 9.55229 0.447715 10 1 10H2V17C2 17.5523 2.44772 18 3 18H8C8.55229 18 9 17.5523 9 17V14.25C9 14.1119 9.11193 14 9.25 14H10.75C10.8881 14 11 14.1119 11 14.25V17C11 17.5523 11.4477 18 12 18H17C17.5523 18 18 17.5523 18 17V10H19C19.5523 10 20 9.55229 20 9V8.47C19.9997 8.1611 19.9278 7.85647 19.79 7.58ZM16 16H13V13C13 12.4477 12.5523 12 12 12H8C7.44772 12 7 12.4477 7 13V16H4V10H16V16Z" fill="white"/>
</svg>
