<svg width="18" height="18" viewBox="0 0 18 18" fill="none" xmlns="http://www.w3.org/2000/svg">
<path fill-rule="evenodd" clip-rule="evenodd" d="M2 0H5C6.10457 0 7 0.89543 7 2V5C7 6.10457 6.10457 7 5 7H2C0.89543 7 0 6.10457 0 5V2C0 0.89543 0.89543 0 2 0ZM2 5H5V2H2V5ZM16 0H13C11.8954 0 11 0.89543 11 2V5C11 6.10457 11.8954 7 13 7H16C17.1046 7 18 6.10457 18 5V2C18 0.89543 17.1046 0 16 0ZM13 5H16V2H13V5ZM7 13C7 11.8954 6.10457 11 5 11H2C0.89543 11 0 11.8954 0 13V16C0 17.1046 0.89543 18 2 18H5C6.10457 18 7 17.1046 7 16V13ZM2 16H5V13H2V16ZM16 11H13C11.8954 11 11 11.8954 11 13V16C11 17.1046 11.8954 18 13 18H16C17.1046 18 18 17.1046 18 16V13C18 11.8954 17.1046 11 16 11ZM13 16H16V13H13V16Z" fill="#a32f4a"/>
</svg>
