<svg width="14" height="18" viewBox="0 0 14 18" fill="none" xmlns="http://www.w3.org/2000/svg">
<path fill-rule="evenodd" clip-rule="evenodd" d="M13.4252 12.0917L12.7335 11.4C12.2645 10.9316 12.0007 10.2961 12.0002 9.63332V7.33332C12.0002 6.25147 11.6493 5.1988 11.0002 4.33332L10.2502 3.33332C9.77803 2.70381 9.03706 2.33332 8.25016 2.33332H7.8335V1.08332C7.8335 0.853205 7.64695 0.666656 7.41683 0.666656H6.5835C6.35338 0.666656 6.16683 0.853205 6.16683 1.08332V2.33332H5.75016C4.96327 2.33332 4.2223 2.70381 3.75016 3.33332L3.00016 4.33332C2.35105 5.1988 2.00016 6.25147 2.00016 7.33332V9.63332C1.99958 10.2961 1.7358 10.9316 1.26683 11.4L0.575163 12.0917C0.421209 12.2469 0.334417 12.4564 0.333496 12.675V13.1667C0.333496 13.6269 0.706592 14 1.16683 14H12.8335C13.2937 14 13.6668 13.6269 13.6668 13.1667V12.675C13.6659 12.4564 13.5791 12.2469 13.4252 12.0917ZM10.3335 12.3333H3.66683V7.33332C3.66683 6.61209 3.90076 5.91031 4.3335 5.33332L5.0835 4.33332C5.24088 4.12348 5.48787 3.99999 5.75016 3.99999H8.25016C8.51246 3.99999 8.75945 4.12348 8.91683 4.33332L9.66683 5.33332C10.0996 5.91031 10.3335 6.61209 10.3335 7.33332V12.3333ZM7.00016 17.3333C7.92064 17.3333 8.66683 16.5871 8.66683 15.6667H5.3335C5.3335 16.5871 6.07969 17.3333 7.00016 17.3333Z" fill="black"/>
</svg>
