<svg width="18" height="18" viewBox="0 0 18 18" fill="none" xmlns="http://www.w3.org/2000/svg">
<path fill-rule="evenodd" clip-rule="evenodd" d="M8.99984 0.666656C4.39746 0.666656 0.666504 4.39762 0.666504 8.99999C0.666504 13.6024 4.39746 17.3333 8.99984 17.3333C13.6022 17.3333 17.3332 13.6024 17.3332 8.99999C17.3332 6.78985 16.4552 4.67024 14.8924 3.10743C13.3296 1.54463 11.21 0.666656 8.99984 0.666656ZM8.99984 3.16666C10.3805 3.16666 11.4998 4.28594 11.4998 5.66666C11.4998 7.04737 10.3805 8.16666 8.99984 8.16666C7.61912 8.16666 6.49984 7.04737 6.49984 5.66666C6.49984 4.28594 7.61912 3.16666 8.99984 3.16666ZM8.99984 14.8223C10.8457 14.8223 12.5827 13.9486 13.6832 12.4667C13.8537 12.2174 13.876 11.8954 13.7415 11.625L13.5498 11.2333C13.1305 10.3775 12.2612 9.83459 11.3082 9.83332H6.69151C5.72494 9.83436 4.84557 10.3925 4.43317 11.2667L4.25817 11.6333C4.12693 11.9015 4.14918 12.2194 4.31651 12.4667C5.41698 13.9486 7.15395 14.8223 8.99984 14.8223Z" fill="black"/>
</svg>
