<svg width="20" height="20" viewBox="0 0 20 20" fill="none" xmlns="http://www.w3.org/2000/svg">
<path fill-rule="evenodd" clip-rule="evenodd" d="M9.47852 16.6667H10.521V16.0275C10.521 15.2483 11.0002 14.5483 11.741 14.2425C12.5077 13.9233 13.3452 14.08 13.8968 14.635L14.346 15.0858L15.086 14.3458L14.6318 13.8925C14.0793 13.3408 13.9235 12.5042 14.2343 11.7617C14.2343 11.7617 14.2352 11.7608 14.2352 11.76L14.2443 11.7367C14.5477 11.0008 15.2485 10.5208 16.0277 10.5208H16.666V9.47916H16.0277C15.2485 9.47916 14.5477 8.99999 14.2427 8.25916C13.9218 7.49249 14.0793 6.65499 14.6343 6.10249L15.0852 5.65332L14.346 4.91416L13.8918 5.36832C13.3402 5.91999 12.5043 6.07582 11.7618 5.76582C11.001 5.45166 10.521 4.75166 10.521 3.97249V3.33332H9.47852V3.97249C9.47852 4.75166 8.99935 5.45166 8.25852 5.75749C7.49268 6.07832 6.65518 5.92082 6.10268 5.36499L5.65352 4.91416L4.91352 5.65416L5.36768 6.10749C5.91935 6.65916 6.07602 7.49582 5.76518 8.23832C5.45185 8.99916 4.75102 9.47916 3.97185 9.47916H3.33268V10.5208H3.97185C4.75102 10.5208 5.45185 11 5.75685 11.7408C6.07768 12.5075 5.92018 13.345 5.36518 13.8975L4.91435 14.3467L5.65352 15.0858L6.10768 14.6317C6.65935 14.08 7.49518 13.9242 8.23768 14.2342C8.99852 14.5483 9.47852 15.2483 9.47852 16.0275V16.6667ZM10.7852 18.3333H9.20852C8.43852 18.3333 7.81185 17.7067 7.81185 16.9367V16.0275C7.81185 15.905 7.71435 15.8208 7.62268 15.7833C7.50268 15.7342 7.37435 15.7242 7.28602 15.81L6.64435 16.4525C6.09768 16.9975 5.20935 16.9992 4.66352 16.4525L3.54685 15.3358C3.28185 15.0708 3.13685 14.7192 3.13685 14.3442C3.13768 13.97 3.28352 13.6183 3.54935 13.3533L4.18935 12.7158C4.27685 12.6283 4.26768 12.5 4.22852 12.4075C4.17852 12.285 4.09518 12.1875 3.97185 12.1875H3.06852C2.29518 12.1875 1.66602 11.5592 1.66602 10.7858V9.20916C1.66602 8.43832 2.29268 7.81249 3.06352 7.81249H3.97185C4.09435 7.81249 4.17852 7.71416 4.21602 7.62249C4.26602 7.50249 4.27602 7.37332 4.18935 7.28666L3.54685 6.64499C3.00185 6.09749 3.00185 5.20916 3.54685 4.66416L4.66352 3.54749C4.92852 3.28249 5.27935 3.13749 5.65352 3.13749H5.65518C6.02935 3.13749 6.38185 3.28332 6.64602 3.54916L7.28352 4.18999C7.37102 4.27832 7.50018 4.26832 7.59268 4.22916C7.71435 4.17832 7.81185 4.09499 7.81185 3.97249V3.06916C7.81185 2.29582 8.44102 1.66666 9.21435 1.66666H10.791C11.561 1.66666 12.1877 2.29332 12.1877 3.06332V3.97249C12.1877 4.09499 12.2852 4.17916 12.3768 4.21666C12.4977 4.26666 12.626 4.27749 12.7135 4.18999L13.3552 3.54749C13.9018 3.00249 14.7902 3.00082 15.336 3.54749L16.4535 4.66499C16.7185 4.92916 16.8635 5.28082 16.8627 5.65582C16.8627 6.02916 16.7169 6.38166 16.451 6.64582L15.8102 7.28416C15.7227 7.37166 15.7318 7.49999 15.771 7.59249C15.821 7.71499 15.9043 7.81249 16.0277 7.81249H16.931C17.7043 7.81249 18.3327 8.44082 18.3327 9.21416V10.7908C18.3327 11.5617 17.7069 12.1875 16.936 12.1875H16.0277C15.9052 12.1875 15.821 12.2858 15.7835 12.3775C15.7827 12.3783 15.7727 12.4033 15.7718 12.405C15.7335 12.4975 15.7235 12.6267 15.8102 12.7133L16.4527 13.355C16.9977 13.9025 16.9977 14.7908 16.4527 15.3358L15.336 16.4525C15.071 16.7175 14.7202 16.8625 14.346 16.8625H14.3443C13.9702 16.8625 13.6177 16.7167 13.3535 16.4508L12.716 15.81C12.6285 15.7225 12.4985 15.7325 12.4068 15.7708C12.2852 15.8217 12.1877 15.905 12.1877 16.0275V16.9308C12.1877 17.7042 11.5585 18.3333 10.7852 18.3333ZM9.99976 8.74999C9.3106 8.74999 8.74976 9.31082 8.74976 9.99999C8.74976 10.6892 9.3106 11.25 9.99976 11.25C10.6889 11.25 11.2498 10.6892 11.2498 9.99999C11.2498 9.31082 10.6889 8.74999 9.99976 8.74999ZM9.99976 12.9167C8.39143 12.9167 7.0831 11.6083 7.0831 9.99999C7.0831 8.39166 8.39143 7.08332 9.99976 7.08332C11.6081 7.08332 12.9164 8.39166 12.9164 9.99999C12.9164 11.6083 11.6081 12.9167 9.99976 12.9167Z" fill="#231F20"/>
<mask id="mask0" mask-type="alpha" maskUnits="userSpaceOnUse" x="1" y="1" width="18" height="18">
<path fill-rule="evenodd" clip-rule="evenodd" d="M9.47852 16.6667H10.521V16.0275C10.521 15.2483 11.0002 14.5483 11.741 14.2425C12.5077 13.9233 13.3452 14.08 13.8968 14.635L14.346 15.0858L15.086 14.3458L14.6318 13.8925C14.0793 13.3408 13.9235 12.5042 14.2343 11.7617C14.2343 11.7617 14.2352 11.7608 14.2352 11.76L14.2443 11.7367C14.5477 11.0008 15.2485 10.5208 16.0277 10.5208H16.666V9.47916H16.0277C15.2485 9.47916 14.5477 8.99999 14.2427 8.25916C13.9218 7.49249 14.0793 6.65499 14.6343 6.10249L15.0852 5.65332L14.346 4.91416L13.8918 5.36832C13.3402 5.91999 12.5043 6.07582 11.7618 5.76582C11.001 5.45166 10.521 4.75166 10.521 3.97249V3.33332H9.47852V3.97249C9.47852 4.75166 8.99935 5.45166 8.25852 5.75749C7.49268 6.07832 6.65518 5.92082 6.10268 5.36499L5.65352 4.91416L4.91352 5.65416L5.36768 6.10749C5.91935 6.65916 6.07602 7.49582 5.76518 8.23832C5.45185 8.99916 4.75102 9.47916 3.97185 9.47916H3.33268V10.5208H3.97185C4.75102 10.5208 5.45185 11 5.75685 11.7408C6.07768 12.5075 5.92018 13.345 5.36518 13.8975L4.91435 14.3467L5.65352 15.0858L6.10768 14.6317C6.65935 14.08 7.49518 13.9242 8.23768 14.2342C8.99852 14.5483 9.47852 15.2483 9.47852 16.0275V16.6667ZM10.7852 18.3333H9.20852C8.43852 18.3333 7.81185 17.7067 7.81185 16.9367V16.0275C7.81185 15.905 7.71435 15.8208 7.62268 15.7833C7.50268 15.7342 7.37435 15.7242 7.28602 15.81L6.64435 16.4525C6.09768 16.9975 5.20935 16.9992 4.66352 16.4525L3.54685 15.3358C3.28185 15.0708 3.13685 14.7192 3.13685 14.3442C3.13768 13.97 3.28352 13.6183 3.54935 13.3533L4.18935 12.7158C4.27685 12.6283 4.26768 12.5 4.22852 12.4075C4.17852 12.285 4.09518 12.1875 3.97185 12.1875H3.06852C2.29518 12.1875 1.66602 11.5592 1.66602 10.7858V9.20916C1.66602 8.43832 2.29268 7.81249 3.06352 7.81249H3.97185C4.09435 7.81249 4.17852 7.71416 4.21602 7.62249C4.26602 7.50249 4.27602 7.37332 4.18935 7.28666L3.54685 6.64499C3.00185 6.09749 3.00185 5.20916 3.54685 4.66416L4.66352 3.54749C4.92852 3.28249 5.27935 3.13749 5.65352 3.13749H5.65518C6.02935 3.13749 6.38185 3.28332 6.64602 3.54916L7.28352 4.18999C7.37102 4.27832 7.50018 4.26832 7.59268 4.22916C7.71435 4.17832 7.81185 4.09499 7.81185 3.97249V3.06916C7.81185 2.29582 8.44102 1.66666 9.21435 1.66666H10.791C11.561 1.66666 12.1877 2.29332 12.1877 3.06332V3.97249C12.1877 4.09499 12.2852 4.17916 12.3768 4.21666C12.4977 4.26666 12.626 4.27749 12.7135 4.18999L13.3552 3.54749C13.9018 3.00249 14.7902 3.00082 15.336 3.54749L16.4535 4.66499C16.7185 4.92916 16.8635 5.28082 16.8627 5.65582C16.8627 6.02916 16.7169 6.38166 16.451 6.64582L15.8102 7.28416C15.7227 7.37166 15.7318 7.49999 15.771 7.59249C15.821 7.71499 15.9043 7.81249 16.0277 7.81249H16.931C17.7043 7.81249 18.3327 8.44082 18.3327 9.21416V10.7908C18.3327 11.5617 17.7069 12.1875 16.936 12.1875H16.0277C15.9052 12.1875 15.821 12.2858 15.7835 12.3775C15.7827 12.3783 15.7727 12.4033 15.7718 12.405C15.7335 12.4975 15.7235 12.6267 15.8102 12.7133L16.4527 13.355C16.9977 13.9025 16.9977 14.7908 16.4527 15.3358L15.336 16.4525C15.071 16.7175 14.7202 16.8625 14.346 16.8625H14.3443C13.9702 16.8625 13.6177 16.7167 13.3535 16.4508L12.716 15.81C12.6285 15.7225 12.4985 15.7325 12.4068 15.7708C12.2852 15.8217 12.1877 15.905 12.1877 16.0275V16.9308C12.1877 17.7042 11.5585 18.3333 10.7852 18.3333ZM9.99976 8.74999C9.3106 8.74999 8.74976 9.31082 8.74976 9.99999C8.74976 10.6892 9.3106 11.25 9.99976 11.25C10.6889 11.25 11.2498 10.6892 11.2498 9.99999C11.2498 9.31082 10.6889 8.74999 9.99976 8.74999ZM9.99976 12.9167C8.39143 12.9167 7.0831 11.6083 7.0831 9.99999C7.0831 8.39166 8.39143 7.08332 9.99976 7.08332C11.6081 7.08332 12.9164 8.39166 12.9164 9.99999C12.9164 11.6083 11.6081 12.9167 9.99976 12.9167Z" fill="white"/>
</mask>
<g mask="url(#mask0)">
<rect width="20" height="20" fill="#0D1C2E"/>
</g>
</svg>
