<svg width="14" height="14" viewBox="0 0 14 14" fill="none" xmlns="http://www.w3.org/2000/svg">
<path fill-rule="evenodd" clip-rule="evenodd" d="M1.74999 0.231522H9.91666C10.561 0.231522 11.0833 0.753856 11.0833 1.39819V9.56486C11.0833 10.2092 10.561 10.7315 9.91666 10.7315H1.74999C1.10566 10.7315 0.583328 10.2092 0.583328 9.56486V1.39819C0.583328 0.753856 1.10566 0.231522 1.74999 0.231522ZM9.91666 8.29319C9.91822 8.37155 9.88819 8.44724 9.83332 8.50321C9.77845 8.55918 9.70337 8.5907 9.62499 8.59069C9.53604 8.59115 9.45195 8.55019 9.39749 8.47985L7.06416 5.56319C7.0097 5.49286 6.9256 5.45189 6.83666 5.45235C6.7475 5.45097 6.66302 5.49213 6.60916 5.56319L5.29666 7.27235C5.2428 7.34342 5.15831 7.38457 5.06916 7.38319C4.97757 7.38229 4.89149 7.33926 4.83582 7.26652L4.25249 6.47319C4.19391 6.40088 4.10636 6.35817 4.01332 6.35652C3.92173 6.35742 3.83566 6.40045 3.77999 6.47319L2.27499 8.47402C2.22119 8.54898 2.13391 8.59262 2.04166 8.59069C1.96382 8.59229 1.8887 8.56208 1.83365 8.50703C1.7786 8.45198 1.74838 8.37686 1.74999 8.29902V1.39819H9.91666V8.29319ZM4.37499 3.14819C3.89175 3.14819 3.49999 3.53994 3.49999 4.02319C3.49999 4.50644 3.89175 4.89819 4.37499 4.89819C4.85824 4.89819 5.24999 4.50644 5.24999 4.02319C5.24999 3.53994 4.85824 3.14819 4.37499 3.14819ZM12.25 10.7315V2.56485C12.8943 2.56485 13.4167 3.08719 13.4167 3.73152V10.7315C13.4167 12.0202 12.372 13.0649 11.0833 13.0649H4.08333C3.439 13.0649 2.91666 12.5425 2.91666 11.8982H11.0833C11.7277 11.8982 12.25 11.3759 12.25 10.7315Z" fill="black"/>
</svg>
