<svg width="22" height="16" viewBox="0 0 22 16" fill="none" xmlns="http://www.w3.org/2000/svg">
<path fill-rule="evenodd" clip-rule="evenodd" d="M8.00003 8C10.2092 8 12 6.20914 12 4C12 1.79086 10.2092 0 8.00003 0C5.79089 0 4.00003 1.79086 4.00003 4C4.00003 6.20914 5.79089 8 8.00003 8ZM15.89 14.55C16.046 14.8595 16.0306 15.2277 15.8493 15.5231C15.668 15.8185 15.3466 15.999 15 16H1.00003C0.653433 15.999 0.332098 15.8185 0.15079 15.5231C-0.0305188 15.2277 -0.0459428 14.8595 0.110026 14.55L1.55003 11.66C2.05882 10.6408 3.10092 9.99776 4.24003 10H11.76C12.8991 9.99776 13.9412 10.6408 14.45 11.66L15.89 14.55ZM19 6H21.5C21.7762 6 22 6.22386 22 6.5V7.5C22 7.77614 21.7762 8 21.5 8H19V10.5C19 10.7761 18.7762 11 18.5 11H17.5C17.2239 11 17 10.7761 17 10.5V8H14.5C14.2239 8 14 7.77614 14 7.5V6.5C14 6.22386 14.2239 6 14.5 6H17V3.5C17 3.22386 17.2239 3 17.5 3H18.5C18.7762 3 19 3.22386 19 3.5V6Z" fill="black"/>
</svg>
