<svg width="14" height="12" viewBox="0 0 14 12" fill="none" xmlns="http://www.w3.org/2000/svg">
<path fill-rule="evenodd" clip-rule="evenodd" d="M4.66288 0.75H9.32522C9.96896 0.75 10.4908 1.27233 10.4908 1.91667V10.0833C10.4908 10.7277 9.96896 11.25 9.32522 11.25H4.66288C4.01915 11.25 3.4973 10.7277 3.4973 10.0833V1.91667C3.4973 1.27233 4.01915 0.75 4.66288 0.75ZM4.66288 10.0833H9.32522V1.91667H4.66288V10.0833ZM1.81886 3.24092C1.78407 3.1721 1.72298 3.12026 1.64945 3.0972C1.57592 3.07413 1.49619 3.08178 1.42839 3.11842L0.909701 3.38675C0.839926 3.42052 0.786858 3.48122 0.76268 3.55492C0.738502 3.62862 0.74529 3.70899 0.781486 3.77759L1.16613 4.53592L0.635788 5.55675C0.598706 5.64122 0.580793 5.73286 0.583337 5.82509V6.16342C0.582962 6.25671 0.604946 6.34873 0.647444 6.43175L1.16613 7.45842L0.769831 8.22259C0.697005 8.36444 0.751524 8.53855 0.892217 8.61342L1.4109 8.88175C1.55434 8.95517 1.7301 8.90084 1.8072 8.75925L2.25595 7.89009C2.30251 7.80809 2.3285 7.71601 2.33171 7.62175V7.28925C2.33209 7.19596 2.31011 7.10395 2.26761 7.02092L1.74892 6.00009L2.27926 4.97925C2.31866 4.89346 2.33666 4.79938 2.33171 4.70509V4.37259C2.33209 4.2793 2.31011 4.18728 2.26761 4.10425L1.81886 3.24092ZM12.822 4.53592L13.3407 5.57425V5.55675C13.3858 5.63934 13.4117 5.73107 13.4164 5.82509V6.16342C13.4168 6.25671 13.3948 6.34873 13.3523 6.43175L12.822 7.45842L13.195 8.22842C13.2678 8.37028 13.2133 8.54438 13.0726 8.61925L12.5539 8.88759C12.4105 8.961 12.2347 8.90667 12.1576 8.76509L11.7088 7.89592C11.6663 7.81289 11.6444 7.72088 11.6447 7.62759V7.29509C11.6444 7.2018 11.6663 7.10978 11.7088 7.02675L12.2392 6.00009L11.7322 4.97342C11.6897 4.89039 11.6677 4.79838 11.668 4.70509V4.37259C11.6677 4.2793 11.6897 4.18728 11.7322 4.10425L12.1809 3.24092C12.2157 3.1721 12.2768 3.12026 12.3503 3.0972C12.4238 3.07413 12.5036 3.08178 12.5714 3.11842L13.0901 3.38675C13.1598 3.42052 13.2129 3.48122 13.2371 3.55492C13.2613 3.62862 13.2545 3.70899 13.2183 3.77759L12.822 4.53592Z" fill="black"/>
</svg>
