<svg width="12" height="12" viewBox="0 0 12 12" fill="none" xmlns="http://www.w3.org/2000/svg">
<path fill-rule="evenodd" clip-rule="evenodd" d="M11.0808 0.989166L11.0108 0.919166C10.8991 0.812572 10.7511 0.752148 10.5967 0.749999H5.95917C5.64823 0.749753 5.35005 0.873643 5.13084 1.09417L0.919171 5.30583C0.692999 5.53336 0.692999 5.90081 0.919171 6.12833L5.87167 11.0808C6.09919 11.307 6.46665 11.307 6.69417 11.0808L10.9058 6.86917C11.1264 6.64995 11.2503 6.35178 11.25 6.04083V1.40333C11.2479 1.24889 11.1874 1.10095 11.0808 0.989166ZM10.0833 6.04083L6.28584 9.84417L2.15584 5.71417L5.95917 1.91667H10.0833V6.04083ZM8.91667 4.25C8.91667 4.89433 8.39434 5.41667 7.75 5.41667C7.10567 5.41667 6.58334 4.89433 6.58334 4.25C6.58334 3.60567 7.10567 3.08333 7.75 3.08333C8.39434 3.08333 8.91667 3.60567 8.91667 4.25Z" fill="black"/>
</svg>
