<svg width="12" height="6" viewBox="0 0 12 6" fill="none" xmlns="http://www.w3.org/2000/svg">
<path d="M9.50216 2.41666V1.24999C9.50147 1.13224 9.57169 1.02563 9.68019 0.979707C9.78868 0.933785 9.91416 0.957564 9.9983 1.03999L11.7494 2.78999C11.8613 2.90538 11.8613 3.08877 11.7494 3.20416L9.9983 4.95416C9.91492 5.03586 9.79084 5.06003 9.68286 5.01559C9.57489 4.97116 9.5038 4.86668 9.50216 4.74999V3.58333H2.49785V4.74999C2.49621 4.86668 2.42513 4.97116 2.31715 5.01559C2.20917 5.06003 2.08509 5.03586 2.00171 4.95416L0.250629 3.20416C0.138686 3.08877 0.138686 2.90538 0.250629 2.78999L2.00171 1.03999C2.08585 0.957564 2.21133 0.933785 2.31982 0.979707C2.42832 1.02563 2.49854 1.13224 2.49785 1.24999V2.41666H9.50216Z" fill="black"/>
</svg>
