<svg width="14" height="12" viewBox="0 0 14 12" fill="none" xmlns="http://www.w3.org/2000/svg">
<path fill-rule="evenodd" clip-rule="evenodd" d="M5.7925 0.166657H10.43C10.5844 0.168806 10.7324 0.229229 10.8442 0.335824L10.9142 0.405824C11.0208 0.51761 11.0812 0.665543 11.0833 0.819991V5.45749C11.0836 5.76843 10.9597 6.06661 10.7392 6.28582L6.5275 10.4975C6.29998 10.7237 5.93252 10.7237 5.705 10.4975L0.7525 5.54499C0.526327 5.31747 0.526327 4.95001 0.7525 4.72249L4.96417 0.510824C5.18338 0.290301 5.48156 0.166411 5.7925 0.166657ZM9.91666 5.45749V1.33332H5.7925L1.98916 5.13082L6.11916 9.26082L9.91666 5.45749ZM8.75 3.66666C8.75 3.02233 8.22766 2.49999 7.58333 2.49999C6.939 2.49999 6.41667 3.02233 6.41667 3.66666C6.41667 4.31099 6.939 4.83332 7.58333 4.83332C8.22766 4.83332 8.75 4.31099 8.75 3.66666ZM13.1775 2.66916L13.2475 2.73916C13.3541 2.85094 13.4145 2.99888 13.4167 3.15332V5.94166C13.4173 6.57504 13.1604 7.18146 12.705 7.62166L8.62167 11.705C8.45085 11.8756 8.17414 11.8756 8.00333 11.705L7.48416 11.1858L11.9058 6.76999C12.1264 6.55078 12.2502 6.2526 12.25 5.94166V2.49999H12.7633C12.9178 2.50214 13.0657 2.56256 13.1775 2.66916Z" fill="black"/>
</svg>
