<svg width="12" height="11" viewBox="0 0 12 11" fill="none" xmlns="http://www.w3.org/2000/svg">
<path fill-rule="evenodd" clip-rule="evenodd" d="M4.1467 1.19979H5.12577C5.2867 1.19979 5.41716 1.33037 5.41716 1.49146V2.07479C5.41716 2.23587 5.2867 2.36646 5.12577 2.36646H4.1467C3.86286 3.17003 3.04194 3.65205 2.2027 3.50792C1.36345 3.36379 0.75 2.63544 0.75 1.78312C0.75 0.93081 1.36345 0.202454 2.2027 0.0583256C3.04194 -0.0858023 3.86286 0.396221 4.1467 1.19979ZM1.92047 1.78313C1.92047 2.10529 2.18139 2.36646 2.50325 2.36646C2.82511 2.36646 3.08603 2.10529 3.08603 1.78313C3.08603 1.46096 2.82511 1.19979 2.50325 1.19979C2.18139 1.19979 1.92047 1.46096 1.92047 1.78313ZM2.31094 4.83396C1.64636 5.06884 1.12362 5.59207 0.888958 6.25729C0.869143 6.29777 0.869143 6.34514 0.888958 6.38562C0.917071 6.42547 0.962612 6.44934 1.01134 6.44979H1.92048C2.01083 6.4508 2.09587 6.40715 2.14777 6.33312C2.21647 6.24683 2.29467 6.16856 2.38088 6.09979C2.45879 6.04802 2.50494 5.96005 2.50326 5.86646V4.97396C2.50282 4.92518 2.47896 4.8796 2.43916 4.85146C2.40149 4.8259 2.35407 4.81943 2.31094 4.83396ZM1.92048 7.61646C2.01628 7.6173 2.10468 7.66818 2.15359 7.75063V7.73313C2.22196 7.82146 2.30017 7.9017 2.38671 7.97229C2.46067 8.02424 2.50428 8.10936 2.50326 8.19979V9.09229C2.51298 9.14389 2.49534 9.19685 2.45664 9.23229C2.4162 9.25213 2.36887 9.25213 2.32843 9.23229C1.66384 8.99741 1.1411 8.47418 0.906443 7.80896C0.886628 7.76848 0.886628 7.72111 0.906443 7.68063C0.934556 7.64078 0.980097 7.61691 1.02883 7.61646H1.92048ZM5.12578 8.21729H3.96022C3.79929 8.21729 3.66883 8.34787 3.66883 8.50896V9.09229C3.66883 9.25338 3.79929 9.38396 3.96022 9.38396H5.12578C5.28671 9.38396 5.41717 9.25338 5.41717 9.09229V8.50896C5.422 8.42862 5.39344 8.34985 5.33826 8.29131C5.28308 8.23277 5.20619 8.19965 5.12578 8.19979V8.21729ZM3.96022 4.71729H5.12578V4.69979C5.20619 4.69965 5.28308 4.73277 5.33826 4.79131C5.39344 4.84985 5.422 4.92862 5.41717 5.00896V5.59229C5.41717 5.75338 5.28671 5.88396 5.12578 5.88396H3.96022C3.79929 5.88396 3.66883 5.75338 3.66883 5.59229V5.00896C3.66883 4.84788 3.79929 4.71729 3.96022 4.71729ZM6.87411 2.38395H8.03967C8.2006 2.38395 8.33107 2.25337 8.33107 2.09229V1.50895C8.33107 1.34787 8.2006 1.21729 8.03967 1.21729H6.87411C6.71318 1.21729 6.58272 1.34787 6.58272 1.50895V2.09229C6.59198 2.2465 6.71977 2.36673 6.87411 2.36645V2.38395ZM8.03967 5.88396H6.87411V5.86646C6.71977 5.86674 6.59198 5.7465 6.58272 5.59229V5.00896C6.58272 4.84788 6.71318 4.71729 6.87411 4.71729H8.03967C8.2006 4.71729 8.33107 4.84788 8.33107 5.00896V5.59229C8.33107 5.75338 8.2006 5.88396 8.03967 5.88396ZM9.68896 5.74979C10.3535 5.5149 10.8763 4.99167 11.1109 4.32645C11.1308 4.28597 11.1308 4.2386 11.1109 4.19812C11.0828 4.15828 11.0373 4.1344 10.9886 4.13395H10.0794C9.98907 4.13294 9.90403 4.17659 9.85213 4.25062C9.78343 4.33691 9.70523 4.41518 9.61902 4.48395C9.54617 4.53224 9.5007 4.61242 9.49664 4.69979V5.59812C9.49708 5.6469 9.52094 5.69248 9.56074 5.72062C9.59935 5.74422 9.64673 5.74853 9.68896 5.73229V5.74979ZM10.0794 2.94979C9.98703 2.95276 9.89937 2.90889 9.84631 2.83312C9.77431 2.74413 9.69216 2.66386 9.60154 2.59395C9.52758 2.542 9.48397 2.45689 9.48499 2.36645V1.45645C9.48543 1.40768 9.50929 1.36209 9.54909 1.33395C9.58953 1.31412 9.63686 1.31412 9.6773 1.33395C10.3419 1.56884 10.8646 2.09207 11.0993 2.75729C11.1191 2.79777 11.1191 2.84514 11.0993 2.88562C11.0712 2.92546 11.0256 2.94934 10.9769 2.94979H10.0794ZM9.49663 7.03312C8.75751 7.0352 8.09955 7.50228 7.85318 8.19979H6.87411C6.71318 8.19979 6.58272 8.33037 6.58272 8.49145V9.07479C6.58272 9.23587 6.71318 9.36645 6.87411 9.36645H7.85318C8.14977 10.2061 9.02904 10.6889 9.89585 10.488C10.7627 10.2872 11.3405 9.46673 11.2383 8.58204C11.1361 7.69736 10.3864 7.03062 9.49663 7.03312ZM8.91385 8.78313C8.91385 9.10529 9.17476 9.36646 9.49663 9.36646C9.81849 9.36646 10.0794 9.10529 10.0794 8.78313C10.0794 8.46096 9.81849 8.19979 9.49663 8.19979C9.17476 8.19979 8.91385 8.46096 8.91385 8.78313Z" fill="black"/>
</svg>
