<svg width="12" height="12" viewBox="0 0 12 12" fill="none" xmlns="http://www.w3.org/2000/svg">
<path d="M3.08154 10.3665C1.79208 10.3665 0.746768 9.3218 0.746768 8.03313C0.746768 6.74447 1.79208 5.6998 3.08154 5.6998H8.91847C9.5632 5.6998 10.0859 5.17747 10.0859 4.53313C10.0859 3.8888 9.5632 3.36647 8.91847 3.36647H2.49785V4.53313C2.49621 4.64982 2.42513 4.7543 2.31715 4.79874C2.20917 4.84317 2.08509 4.819 2.00171 4.7373L0.250629 2.9873C0.138686 2.87191 0.138686 2.68853 0.250629 2.57313L2.00171 0.823134C2.08585 0.740707 2.21133 0.716927 2.31982 0.762849C2.42832 0.808771 2.49854 0.915386 2.49785 1.03313V2.1998H8.91847C10.2079 2.1998 11.2532 3.24447 11.2532 4.53313C11.2532 5.8218 10.2079 6.86647 8.91847 6.86647H3.08154C2.43681 6.86647 1.91415 7.3888 1.91415 8.03313C1.91415 8.67747 2.43681 9.1998 3.08154 9.1998H9.50216V8.03313C9.50147 7.91539 9.57169 7.80877 9.68019 7.76285C9.78868 7.71693 9.91416 7.74071 9.9983 7.82313L11.7494 9.57313C11.8613 9.68853 11.8613 9.87191 11.7494 9.9873L9.9983 11.7373C9.91492 11.819 9.79084 11.8432 9.68286 11.7987C9.57489 11.7543 9.5038 11.6498 9.50216 11.5331V10.3665H3.08154Z" fill="black"/>
</svg>
