<svg width="12" height="11" viewBox="0 0 12 11" fill="none" xmlns="http://www.w3.org/2000/svg">
<path fill-rule="evenodd" clip-rule="evenodd" d="M4.83211 3.41356C4.83211 3.33579 4.80105 3.26125 4.74584 3.20648L2.90251 1.35731L3.73084 0.52898C3.81327 0.444892 3.83705 0.319487 3.79112 0.211061C3.7452 0.102634 3.63859 0.0324555 3.52084 0.0331472H1.04167C0.883136 0.039136 0.755994 0.166278 0.750005 0.324814V2.80398C0.749284 2.92325 0.821251 3.03094 0.931722 3.07589C1.04219 3.12085 1.1689 3.09402 1.25167 3.00815L2.08001 2.17981L3.92334 4.02898C3.9781 4.0842 4.05265 4.11525 4.13042 4.11525C4.20819 4.11525 4.28274 4.0842 4.33751 4.02898L4.74584 3.62065C4.80105 3.56588 4.83211 3.49133 4.83211 3.41356ZM4.13042 6.45104C4.20819 6.45104 4.28274 6.4821 4.33751 6.53731L4.74584 6.94565C4.80106 7.00041 4.83211 7.07496 4.83211 7.15273C4.83211 7.2305 4.80106 7.30505 4.74584 7.35982L2.89667 9.20315L3.72501 10.0373C3.80671 10.1206 3.83087 10.2447 3.78644 10.3526C3.74201 10.4605 3.63753 10.5315 3.52084 10.5331H1.04167C0.883136 10.5272 0.755994 10.4 0.750006 10.2415V7.76232C0.749314 7.64457 0.819492 7.53795 0.927919 7.49203C1.03635 7.44611 1.16175 7.46989 1.24584 7.55232L2.07417 8.38065L3.92334 6.53731C3.9781 6.4821 4.05265 6.45104 4.13042 6.45104ZM10.7542 7.55815L9.92584 8.38648L8.0825 6.53731C8.02774 6.4821 7.95319 6.45104 7.87542 6.45104C7.79765 6.45104 7.7231 6.4821 7.66834 6.53731L7.26 6.94565C7.20479 7.00041 7.17373 7.07496 7.17373 7.15273C7.17373 7.2305 7.20479 7.30505 7.26 7.35981L9.10334 9.20898L8.275 10.0373C8.19258 10.1214 8.1688 10.2468 8.21472 10.3552C8.26064 10.4637 8.36725 10.5338 8.485 10.5331H10.9583C11.1169 10.5272 11.244 10.4 11.25 10.2415V7.76231C11.2507 7.64305 11.1788 7.53536 11.0683 7.4904C10.9578 7.44544 10.8311 7.47227 10.7483 7.55815H10.7542ZM8.47917 0.0331508H10.9583C11.1169 0.0391396 11.244 0.166281 11.25 0.324817V2.80398C11.2507 2.92173 11.1805 3.02835 11.0721 3.07427C10.9637 3.12019 10.8383 3.09641 10.7542 3.01398L9.92584 2.18565L8.07667 4.02898C8.02191 4.0842 7.94736 4.11526 7.86959 4.11526C7.79182 4.11526 7.71727 4.0842 7.66251 4.02898L7.25417 3.62065C7.19896 3.56589 7.1679 3.49134 7.1679 3.41357C7.1679 3.3358 7.19896 3.26125 7.25417 3.20648L9.10334 1.35732L8.27501 0.528984C8.19331 0.445655 8.16914 0.321647 8.21357 0.213737C8.25801 0.105827 8.36249 0.03479 8.47917 0.0331508Z" fill="black"/>
</svg>
