<svg width="14" height="15" viewBox="0 0 14 15" fill="none" xmlns="http://www.w3.org/2000/svg">
<path fill-rule="evenodd" clip-rule="evenodd" d="M11.0833 3.02582C10.7625 3.02582 10.5 3.28832 10.5 3.60915V12.3592C10.5 12.68 10.7625 12.9425 11.0833 12.9425C11.4042 12.9425 11.6667 12.68 11.6667 12.3592V3.60915C11.6667 3.28832 11.4042 3.02582 11.0833 3.02582ZM7 5.35915C6.67916 5.35915 6.41666 5.62165 6.41666 5.94248V12.3592C6.41666 12.68 6.67916 12.9425 7 12.9425C7.32083 12.9425 7.58333 12.68 7.58333 12.3592V5.94248C7.58333 5.62165 7.32083 5.35915 7 5.35915ZM2.33333 8.27582C2.33333 7.95498 2.59583 7.69248 2.91666 7.69248C3.23749 7.69248 3.49999 7.95498 3.49999 8.27582V12.3592C3.49999 12.68 3.23749 12.9425 2.91666 12.9425C2.59583 12.9425 2.33333 12.68 2.33333 12.3592V8.27582Z" fill="#231F20"/>
<mask id="mask0" mask-type="alpha" maskUnits="userSpaceOnUse" x="2" y="3" width="10" height="10">
<path fill-rule="evenodd" clip-rule="evenodd" d="M11.0833 3.02582C10.7625 3.02582 10.5 3.28832 10.5 3.60915V12.3592C10.5 12.68 10.7625 12.9425 11.0833 12.9425C11.4042 12.9425 11.6667 12.68 11.6667 12.3592V3.60915C11.6667 3.28832 11.4042 3.02582 11.0833 3.02582ZM7 5.35915C6.67916 5.35915 6.41666 5.62165 6.41666 5.94248V12.3592C6.41666 12.68 6.67916 12.9425 7 12.9425C7.32083 12.9425 7.58333 12.68 7.58333 12.3592V5.94248C7.58333 5.62165 7.32083 5.35915 7 5.35915ZM2.33333 8.27582C2.33333 7.95498 2.59583 7.69248 2.91666 7.69248C3.23749 7.69248 3.49999 7.95498 3.49999 8.27582V12.3592C3.49999 12.68 3.23749 12.9425 2.91666 12.9425C2.59583 12.9425 2.33333 12.68 2.33333 12.3592V8.27582Z" fill="white"/>
</mask>
<g mask="url(#mask0)">
<rect y="0.692505" width="14" height="14" fill="#0D1C2E"/>
</g>
</svg>
