<svg width="12" height="8" viewBox="0 0 12 8" fill="none" xmlns="http://www.w3.org/2000/svg">
<path fill-rule="evenodd" clip-rule="evenodd" d="M9.99808 4.20999L11.7481 2.45999C11.8622 2.34229 11.8596 2.15448 11.7422 2.03999L9.99224 0.289992C9.90816 0.207564 9.78275 0.183785 9.67432 0.229707C9.5659 0.275629 9.49572 0.382243 9.49641 0.499992V1.66666H5.12141C4.96033 1.66666 4.82974 1.79724 4.82974 1.95833V2.54166C4.82974 2.70274 4.96033 2.83333 5.12141 2.83333H9.49641V3.99999C9.49323 4.12033 9.56431 4.23025 9.67535 4.27673C9.78639 4.32322 9.91458 4.2967 9.99808 4.20999ZM2.49641 5.16666H6.87141C7.03249 5.16666 7.16308 5.29724 7.16308 5.45832V6.04166C7.16308 6.20274 7.03249 6.33332 6.87141 6.33332H2.49641V7.49999C2.49477 7.61668 2.42373 7.72116 2.31582 7.76559C2.20791 7.81003 2.08391 7.78586 2.00058 7.70416L0.250577 5.95416C0.138703 5.83877 0.138703 5.65538 0.250577 5.53999L2.00058 3.78999C2.08467 3.70756 2.21007 3.68378 2.3185 3.72971C2.42692 3.77563 2.4971 3.88224 2.49641 3.99999V5.16666Z" fill="black"/>
</svg>
