<svg width="12" height="10" viewBox="0 0 12 10" fill="none" xmlns="http://www.w3.org/2000/svg">
<path d="M11.8333 1.20835V4.12502C11.8333 4.2861 11.7028 4.41669 11.5417 4.41669H11.3725C11.2934 4.41783 11.2174 4.38615 11.1625 4.32919L10.2058 3.37252L7.07917 6.49335C7.02624 6.54975 6.95234 6.58174 6.875 6.58174C6.79766 6.58174 6.72376 6.54975 6.67083 6.49335L5.125 4.94752L1.07667 8.99585C1.0219 9.05107 0.947353 9.08213 0.869584 9.08213C0.791814 9.08213 0.717266 9.05107 0.6625 8.99585L0.254167 8.58752C0.198951 8.53276 0.167892 8.45821 0.167892 8.38044C0.167892 8.30267 0.198951 8.22812 0.254167 8.17335L4.92083 3.50669C4.97376 3.45029 5.04766 3.4183 5.125 3.4183C5.20234 3.4183 5.27624 3.45029 5.32917 3.50669L6.875 5.05252L9.3775 2.54419L8.42083 1.58752C8.36387 1.53264 8.33219 1.45661 8.33333 1.37752V1.20835C8.33333 1.04727 8.46392 0.916687 8.625 0.916687H11.5417C11.7028 0.916687 11.8333 1.04727 11.8333 1.20835Z" fill="black"/>
</svg>
