<svg width="12" height="13" viewBox="0 0 12 13" fill="none" xmlns="http://www.w3.org/2000/svg">
<path fill-rule="evenodd" clip-rule="evenodd" d="M2.50001 0.36322H9.50001C10.7887 0.36322 11.8333 1.40789 11.8333 2.69655V7.36322C11.8333 8.65189 10.7887 9.69655 9.50001 9.69655H3.66667C3.19916 9.68764 2.74753 9.86619 2.41251 10.1924L0.662505 11.9424C0.609029 11.9979 0.535407 12.0294 0.458338 12.0299C0.297255 12.0299 0.166672 11.8993 0.166672 11.7382V2.69655C0.166672 1.40789 1.21134 0.36322 2.50001 0.36322ZM3.66667 8.52989H9.5C10.1443 8.52989 10.6667 8.00755 10.6667 7.36322V2.69655C10.6667 2.05222 10.1443 1.52989 9.5 1.52989H2.50001C1.85567 1.52989 1.33334 2.05222 1.33334 2.69655V9.62655L1.60167 9.38155C2.14972 8.83489 2.8926 8.5285 3.66667 8.52989ZM6.29167 6.19655H5.70834C5.54726 6.19655 5.41667 6.32714 5.41667 6.48822V7.07155C5.41667 7.23264 5.54726 7.36322 5.70834 7.36322H6.29167C6.45275 7.36322 6.58334 7.23264 6.58334 7.07155V6.48822C6.58334 6.32714 6.45275 6.19655 6.29167 6.19655ZM6.32667 5.02988H5.70834H5.69084C5.61667 5.03042 5.55391 4.97519 5.54501 4.90155L5.31167 3.02321C5.30161 2.94 5.32784 2.85648 5.38367 2.79395C5.43949 2.73143 5.51952 2.69594 5.60334 2.69655H6.41418C6.49799 2.69594 6.57802 2.73143 6.63385 2.79395C6.68968 2.85648 6.7159 2.94 6.70584 3.02321L6.47251 4.90155C6.46361 4.97519 6.40085 5.03042 6.32667 5.02988Z" fill="black"/>
</svg>
