<svg width="10" height="13" viewBox="0 0 10 13" fill="none" xmlns="http://www.w3.org/2000/svg">
<path fill-rule="evenodd" clip-rule="evenodd" d="M4.41666 1.52989C5.06099 1.52989 5.58333 2.05222 5.58333 2.69655H9.37499C9.53608 2.69655 9.66666 2.82714 9.66666 2.98822V8.23822C9.66666 8.3993 9.53608 8.52989 9.37499 8.52989H5.58333C4.939 8.52989 4.41666 8.00755 4.41666 7.36322H1.49999V11.7382C1.49999 11.8993 1.36941 12.0299 1.20833 12.0299H0.624995C0.463912 12.0299 0.333328 11.8993 0.333328 11.7382V0.654887C0.333328 0.493804 0.463912 0.36322 0.624995 0.36322H1.20833C1.36941 0.36322 1.49999 0.493804 1.49999 0.654887V1.52989H4.41666ZM1.49999 2.69655V6.19655H5.29166C5.45274 6.19655 5.58333 6.32714 5.58333 6.48822V7.36322H8.49999V3.86322H4.70833C4.54725 3.86322 4.41666 3.73264 4.41666 3.57155V2.69655H1.49999Z" fill="black"/>
</svg>
