<svg width="14" height="13" viewBox="0 0 14 13" fill="none" xmlns="http://www.w3.org/2000/svg">
<path fill-rule="evenodd" clip-rule="evenodd" d="M11.0929 6.18823C11.0929 7.47506 10.0473 8.51824 8.75743 8.51824H3.50265C3.03471 8.50933 2.58267 8.68763 2.24734 9.01336L1.07961 10.1784C1.02609 10.2338 0.952399 10.2653 0.87526 10.2657C0.714031 10.2657 0.583328 10.1353 0.583328 9.97449V2.69322C0.583328 1.4064 1.62895 0.36322 2.91878 0.36322H8.75743C10.0473 0.36322 11.0929 1.4064 11.0929 2.69322V6.18823ZM1.75106 2.69326V7.93577C2.25638 7.55766 2.871 7.35327 3.50265 7.35327H8.75743C9.40235 7.35327 9.92516 6.83168 9.92516 6.18826V2.69326C9.92516 2.04984 9.40235 1.52825 8.75743 1.52825H2.91879C2.27387 1.52825 1.75106 2.04984 1.75106 2.69326ZM7.88163 5.02333H8.46549C8.62672 5.02333 8.75742 4.89293 8.75742 4.73208V4.14957C8.75742 3.98872 8.62672 3.85832 8.46549 3.85832H7.88163C7.7204 3.85832 7.58969 3.98872 7.58969 4.14957V4.73208C7.58969 4.89293 7.7204 5.02333 7.88163 5.02333ZM6.13004 5.02333H5.54617C5.38494 5.02333 5.25424 4.89293 5.25424 4.73208V4.14957C5.25424 3.98872 5.38494 3.85832 5.54617 3.85832H6.13004C6.29127 3.85832 6.42197 3.98872 6.42197 4.14957V4.73208C6.42197 4.89293 6.29127 5.02333 6.13004 5.02333ZM4.08651 4.73208V4.14957C4.08651 3.98872 3.95581 3.85832 3.79458 3.85832H3.21071C3.04948 3.85832 2.91878 3.98872 2.91878 4.14957V4.73208C2.91878 4.89293 3.04948 5.02333 3.21071 5.02333H3.79458C3.95581 5.02333 4.08651 4.89293 4.08651 4.73208ZM12.2606 7.3533V2.69329C12.901 2.69968 13.4167 3.2194 13.4167 3.85829V12.322C13.4167 12.4829 13.286 12.6133 13.1247 12.6133C13.0476 12.6128 12.9739 12.5813 12.9204 12.5259L11.7526 11.3609C11.423 11.0317 10.9754 10.8472 10.509 10.8483H4.08651C3.44159 10.8483 2.91878 10.3267 2.91878 9.6833H9.92515C11.215 9.6833 12.2606 8.64013 12.2606 7.3533Z" fill="black"/>
</svg>
