<svg width="12" height="12" viewBox="0 0 12 12" fill="none" xmlns="http://www.w3.org/2000/svg">
<path fill-rule="evenodd" clip-rule="evenodd" d="M3.59667 0.75H8.40334C8.72962 0.750921 9.0406 0.888431 9.26084 1.12917L11.6817 3.76C11.7803 3.86847 11.8344 4.01008 11.8333 4.15667V4.33167C11.8336 4.46796 11.7861 4.60005 11.6992 4.705L6.44917 11.04C6.33813 11.1733 6.17351 11.2503 6.00001 11.25C5.8265 11.2503 5.66188 11.1733 5.55084 11.04L0.300839 4.705C0.213875 4.60005 0.166406 4.46796 0.166672 4.33167V4.15667C0.165593 4.01008 0.21974 3.86847 0.318339 3.76L2.73917 1.12917C2.95941 0.888431 3.27039 0.750921 3.59667 0.75ZM10.5558 4.25L8.40334 1.91667H3.59667L1.44417 4.25L6.00001 9.76833L10.5558 4.25Z" fill="black"/>
</svg>
