<svg width="12" height="12" viewBox="0 0 12 12" fill="none" xmlns="http://www.w3.org/2000/svg">
<path fill-rule="evenodd" clip-rule="evenodd" d="M9.50008 0.749959V10.0833C9.50008 10.4055 9.23891 10.6666 8.91675 10.6666H8.57258C8.41955 10.666 8.2729 10.6052 8.16425 10.4975L6.41425 8.77662C5.76423 8.12574 4.8841 7.75693 3.96425 7.74996H1.91675C0.95025 7.74996 0.166748 6.96646 0.166748 5.99996V4.83329C0.166748 3.86679 0.95025 3.08329 1.91675 3.08329H3.96425C4.89421 3.08402 5.78624 2.71462 6.44341 2.05663L8.19341 0.335793C8.30207 0.228025 8.44872 0.16727 8.60175 0.166626H8.91675C9.23891 0.166626 9.50008 0.427793 9.50008 0.749959ZM11.3667 6.81667C11.6697 6.41278 11.8334 5.92154 11.8334 5.41667C11.8398 4.90184 11.6757 4.39936 11.3667 3.9875C11.3149 3.9224 11.2394 3.88046 11.1567 3.87084C11.0719 3.86617 10.9891 3.89802 10.9292 3.95834L10.5092 4.37834C10.4117 4.47693 10.397 4.6306 10.4742 4.74584C10.7307 5.13519 10.7307 5.63982 10.4742 6.02917C10.397 6.14441 10.4117 6.29808 10.5092 6.39667L10.9292 6.81667C10.9856 6.87778 11.0649 6.91254 11.148 6.91254C11.2311 6.91254 11.3104 6.87778 11.3667 6.81667ZM6.00008 11.5416V11.2033C6.01105 11.0523 5.90462 10.9179 5.75508 10.8941L5.56258 10.8591C5.37041 10.8282 5.20631 10.7035 5.12508 10.5266L4.88008 8.92245C4.58907 8.80518 4.278 8.74574 3.96425 8.74745H2.54092C2.57188 8.95381 2.64324 9.15204 2.75092 9.33078L4.08092 11.5474C4.18595 11.7246 4.37663 11.8332 4.58258 11.8333H5.70842C5.8695 11.8333 6.00008 11.7027 6.00008 11.5416ZM7.26591 2.88493L8.33342 1.81743V9.01576L7.26591 7.94826C6.60416 7.28346 5.75573 6.83585 4.83341 6.66493V4.16826C5.75573 3.99734 6.60416 3.54972 7.26591 2.88493Z" fill="black"/>
</svg>
