<svg width="12" height="12" viewBox="0 0 12 12" fill="none" xmlns="http://www.w3.org/2000/svg">
<path fill-rule="evenodd" clip-rule="evenodd" d="M2.33667 1.33333H11.5417C11.7028 1.33333 11.8333 1.46392 11.8333 1.625V1.91667C11.8291 2.40076 11.6984 2.87534 11.4542 3.29333L10.0833 5.7025C9.78671 6.23565 9.22916 6.57106 8.61917 6.58333H4.98501C4.85893 6.58062 4.73361 6.563 4.61167 6.53083L4.02834 7.75H10.375C10.5361 7.75 10.6667 7.88058 10.6667 8.04167V8.625C10.6667 8.78608 10.5361 8.91667 10.375 8.91667H3.08334C2.9237 8.92036 2.77441 8.83791 2.69251 8.70083L2.56417 8.47917C2.49673 8.34935 2.49673 8.19482 2.56417 8.065L3.64917 5.90667C3.58992 5.8441 3.53715 5.77569 3.49167 5.7025L0.995005 1.33333H0.458338C0.297255 1.33333 0.166672 1.20275 0.166672 1.04167V0.458332C0.166672 0.297249 0.297255 0.166666 0.458338 0.166666H0.995005C1.41347 0.165004 1.80077 0.387593 2.01001 0.749999L2.33667 1.33333ZM8.64251 5.41667C8.82637 5.39442 8.98874 5.28617 9.08001 5.12501L10.4567 2.71584C10.4788 2.67151 10.4963 2.62484 10.5136 2.57879L10.5136 2.57878C10.5236 2.55212 10.5335 2.52567 10.5442 2.50001H3.00751L4.50667 5.12501C4.61025 5.30441 4.80119 5.41542 5.00834 5.41667H8.64251ZM9.5 9.5C8.85567 9.5 8.33334 10.0223 8.33334 10.6667C8.33334 11.311 8.85567 11.8333 9.5 11.8333C10.1443 11.8333 10.6667 11.311 10.6667 10.6667C10.6667 10.0223 10.1443 9.5 9.5 9.5ZM2.50001 10.6667C2.50001 10.0223 3.02234 9.5 3.66667 9.5C4.311 9.5 4.83334 10.0223 4.83334 10.6667C4.83334 11.311 4.311 11.8333 3.66667 11.8333C3.02234 11.8333 2.50001 11.311 2.50001 10.6667Z" fill="black"/>
</svg>
