<svg width="14" height="14" viewBox="0 0 14 14" fill="none" xmlns="http://www.w3.org/2000/svg">
<path fill-rule="evenodd" clip-rule="evenodd" d="M10.5 8.75H11.6667C11.9888 8.75 12.25 9.01117 12.25 9.33333V11.6667C12.25 11.9888 11.9888 12.25 11.6667 12.25H8.16667C7.8445 12.25 7.58333 11.9888 7.58333 11.6667V9.33333C7.58333 9.01117 7.8445 8.75 8.16667 8.75H9.33333V7.58333H4.66667V8.75H5.83333C6.1555 8.75 6.41667 9.01117 6.41667 9.33333V11.6667C6.41667 11.9888 6.1555 12.25 5.83333 12.25H2.33333C2.01117 12.25 1.75 11.9888 1.75 11.6667V9.33333C1.75 9.01117 2.01117 8.75 2.33333 8.75H3.5V7.58333C3.5 6.939 4.02233 6.41667 4.66667 6.41667H6.41667V5.25H5.25C4.92783 5.25 4.66667 4.98883 4.66667 4.66667V2.33333C4.66667 2.01117 4.92783 1.75 5.25 1.75H8.75C9.07217 1.75 9.33333 2.01117 9.33333 2.33333V4.66667C9.33333 4.98883 9.07217 5.25 8.75 5.25H7.58333V6.41667H9.33333C9.97766 6.41667 10.5 6.939 10.5 7.58333V8.75ZM8.16667 2.91667H5.83333V4.08333H8.16667V2.91667ZM5.25 11.0833H2.91667V9.91667H5.25V11.0833ZM8.75 11.0833H11.0833V9.91667H8.75V11.0833Z" fill="black"/>
</svg>
