<svg width="12" height="12" viewBox="0 0 12 12" fill="none" xmlns="http://www.w3.org/2000/svg">
<path fill-rule="evenodd" clip-rule="evenodd" d="M11.8333 10.0833V4.25C11.8333 3.60567 11.311 3.08333 10.6667 3.08333H8.91667V1.91667C8.91667 1.27233 8.39434 0.75 7.75001 0.75H4.25001C3.60567 0.75 3.08334 1.27233 3.08334 1.91667V3.08333H1.33334C0.689006 3.08333 0.166672 3.60567 0.166672 4.25V10.0833C0.166672 10.7277 0.689006 11.25 1.33334 11.25H10.6667C11.311 11.25 11.8333 10.7277 11.8333 10.0833ZM4.83334 6.875V7.16667C4.83334 7.48883 5.0945 7.75 5.41667 7.75H6.58334C6.9055 7.75 7.16667 7.48883 7.16667 7.16667V6.875C7.16667 6.71392 7.03609 6.58333 6.875 6.58333H5.125C4.96392 6.58333 4.83334 6.71392 4.83334 6.875ZM4.25 3.08333H7.75V1.91667H4.25V3.08333ZM1.33334 4.25H10.6667V10.0833H1.33334V4.25Z" fill="black"/>
</svg>
