<svg width="14" height="14" viewBox="0 0 14 14" fill="none" xmlns="http://www.w3.org/2000/svg">
<path fill-rule="evenodd" clip-rule="evenodd" d="M8.16666 1.40584C8.16602 1.25281 8.10526 1.10616 7.99749 0.99751L7.75249 0.75251C7.64384 0.644743 7.49719 0.583988 7.34416 0.583344H6.65583C6.5028 0.583988 6.35615 0.644743 6.24749 0.75251L6.00249 0.99751C5.89473 1.10616 5.83397 1.25281 5.83333 1.40584V1.75001H8.16666V1.40584ZM10.3573 7.97196C9.92499 9.46754 8.55679 10.4978 6.99998 10.5C5.44318 10.4978 4.07498 9.46754 3.64266 7.97196C3.21033 6.47639 3.81782 4.87503 5.13332 4.04251C5.38937 3.88373 5.54413 3.60295 5.54165 3.30168V3.20834C5.54165 3.04726 5.67223 2.91668 5.83332 2.91668H8.16665C8.32773 2.91668 8.45832 3.04726 8.45832 3.20834V3.30168C8.45809 3.60238 8.61228 3.88213 8.86665 4.04251C10.1822 4.87503 10.7896 6.47639 10.3573 7.97196ZM9.33333 7.00001C9.33333 5.71135 8.28866 4.66668 7 4.66668C5.71133 4.66668 4.66666 5.71135 4.66666 7.00001C4.66666 8.28867 5.71133 9.33334 7 9.33334C8.28866 9.33334 9.33333 8.28867 9.33333 7.00001ZM7.29166 11.6667C7.45274 11.6667 7.58333 11.7973 7.58333 11.9583V13.125C7.58333 13.2861 7.45274 13.4167 7.29166 13.4167H6.70833C6.54725 13.4167 6.41666 13.2861 6.41666 13.125V11.9583C6.41666 11.7973 6.54725 11.6667 6.70833 11.6667H7.29166ZM2.25748 11.3283L2.67165 11.7425C2.72458 11.7989 2.79848 11.8309 2.87582 11.8309C2.95316 11.8309 3.02706 11.7989 3.07998 11.7425L3.90832 10.92C4.02019 10.8046 4.02019 10.6212 3.90832 10.5058L3.49998 10.0916C3.38459 9.97977 3.20121 9.97977 3.08582 10.0916L2.25748 10.92C2.20109 10.9729 2.1691 11.0468 2.1691 11.1241C2.1691 11.2015 2.20109 11.2754 2.25748 11.3283ZM11.1242 11.8309C11.0468 11.8309 10.9729 11.7989 10.92 11.7425L10.0917 10.92C9.97597 10.8039 9.97597 10.6161 10.0917 10.5L10.5058 10.0916C10.6212 9.97977 10.8046 9.97977 10.92 10.0916L11.7425 10.92C11.7989 10.9729 11.8309 11.0468 11.8309 11.1241C11.8309 11.2015 11.7989 11.2754 11.7425 11.3283L11.3283 11.7425C11.2754 11.7989 11.2015 11.8309 11.1242 11.8309ZM0.583328 7.29168C0.583328 7.45276 0.713912 7.58334 0.874995 7.58334H2.04166C2.20274 7.58334 2.33333 7.45276 2.33333 7.29168V6.70834C2.33333 6.54726 2.20274 6.41668 2.04166 6.41668H0.874995C0.713912 6.41668 0.583328 6.54726 0.583328 6.70834V7.29168ZM13.125 7.58334H11.9583C11.7972 7.58334 11.6667 7.45276 11.6667 7.29168V6.70834C11.6667 6.54726 11.7972 6.41668 11.9583 6.41668H13.125C13.2861 6.41668 13.4167 6.54726 13.4167 6.70834V7.29168C13.4167 7.45276 13.2861 7.58334 13.125 7.58334ZM2.25748 2.67177C2.20109 2.7247 2.1691 2.79859 2.1691 2.87593C2.1691 2.95328 2.20109 3.02717 2.25748 3.0801L3.07998 3.90843C3.19608 4.02413 3.38389 4.02413 3.49998 3.90843L3.90832 3.5001C4.02019 3.38471 4.02019 3.20133 3.90832 3.08593L3.07998 2.2576C3.02706 2.20121 2.95316 2.16922 2.87582 2.16922C2.79848 2.16922 2.72458 2.20121 2.67165 2.2576L2.25748 2.67177ZM11.7425 3.0801L10.92 3.90843C10.8039 4.02413 10.6161 4.02413 10.5 3.90843L10.0917 3.49427C9.97978 3.37888 9.97978 3.19549 10.0917 3.0801L10.92 2.2576C10.9729 2.20121 11.0468 2.16922 11.1242 2.16922C11.2015 2.16922 11.2754 2.20121 11.3283 2.2576L11.7425 2.67177C11.7989 2.7247 11.8309 2.79859 11.8309 2.87593C11.8309 2.95328 11.7989 3.02717 11.7425 3.0801Z" fill="black"/>
</svg>
