<svg width="12" height="12" viewBox="0 0 12 12" fill="none" xmlns="http://www.w3.org/2000/svg">
<path fill-rule="evenodd" clip-rule="evenodd" d="M8.91667 1.91667H1.33334V9.5H5.41667V11.25H1.33334C0.689006 11.25 0.166672 10.7277 0.166672 10.0833V1.91667C0.166672 1.27233 0.689006 0.75 1.33334 0.75H7.75C8.39434 0.75 8.91667 1.27233 8.91667 1.91667ZM10.6667 3.08333H7.75001C7.10567 3.08333 6.58334 3.60567 6.58334 4.25V10.0833C6.58334 10.7277 7.10567 11.25 7.75001 11.25H10.6667C11.311 11.25 11.8333 10.7277 11.8333 10.0833V4.25C11.8333 3.60567 11.311 3.08333 10.6667 3.08333ZM10.6667 10.0833H7.75V4.25H10.6667V10.0833Z" fill="black"/>
</svg>
