<svg width="14" height="15" viewBox="0 0 14 15" fill="none" xmlns="http://www.w3.org/2000/svg">
<path fill-rule="evenodd" clip-rule="evenodd" d="M12.2483 7.09409H12.25C12.5714 7.09409 12.8328 7.35425 12.8333 7.67567C12.838 9.23375 12.2354 10.7008 11.1364 11.8057C10.038 12.9105 8.575 13.5213 7.01692 13.5259H7C5.44775 13.5259 3.98767 12.9239 2.88692 11.829C1.78208 10.7306 1.17133 9.26759 1.16667 7.7095C1.162 6.15084 1.76458 4.68434 2.86358 3.5795C3.962 2.47467 5.425 1.86392 6.98309 1.85925C7.44684 1.86625 7.91934 1.91292 8.372 2.02142C8.68467 2.09725 8.87775 2.41225 8.80192 2.7255C8.72667 3.03817 8.40992 3.23067 8.09842 3.156C7.73617 3.0685 7.35175 3.03175 6.98659 3.02592C5.74 3.02942 4.56925 3.51825 3.69075 4.402C2.81167 5.28575 2.32983 6.45942 2.33333 7.706C2.33683 8.95259 2.82567 10.1228 3.70942 11.0018C4.59025 11.8774 5.75808 12.3593 7 12.3593H7.01342C8.26 12.3558 9.43075 11.8669 10.3093 10.9832C11.1883 10.0988 11.6702 8.92575 11.6667 7.67917C11.6661 7.35717 11.9263 7.09467 12.2483 7.09409ZM4.83758 7.28011C5.06566 7.05203 5.43433 7.05203 5.66241 7.28011L6.97141 8.58911L10.6447 4.39145C10.857 4.15053 11.2251 4.12486 11.4677 4.3372C11.7098 4.54895 11.7343 4.91761 11.522 5.16028L7.43866 9.82695C7.33249 9.94828 7.18083 10.02 7.01924 10.0259H6.99999C6.84541 10.0259 6.69724 9.96461 6.58758 9.85495L4.83758 8.10495C4.60949 7.87686 4.60949 7.5082 4.83758 7.28011Z" fill="#231F20"/>
<mask id="mask0" mask-type="alpha" maskUnits="userSpaceOnUse" x="1" y="1" width="12" height="13">
<path fill-rule="evenodd" clip-rule="evenodd" d="M12.2483 7.09409H12.25C12.5714 7.09409 12.8328 7.35425 12.8333 7.67567C12.838 9.23375 12.2354 10.7008 11.1364 11.8057C10.038 12.9105 8.575 13.5213 7.01692 13.5259H7C5.44775 13.5259 3.98767 12.9239 2.88692 11.829C1.78208 10.7306 1.17133 9.26759 1.16667 7.7095C1.162 6.15084 1.76458 4.68434 2.86358 3.5795C3.962 2.47467 5.425 1.86392 6.98309 1.85925C7.44684 1.86625 7.91934 1.91292 8.372 2.02142C8.68467 2.09725 8.87775 2.41225 8.80192 2.7255C8.72667 3.03817 8.40992 3.23067 8.09842 3.156C7.73617 3.0685 7.35175 3.03175 6.98659 3.02592C5.74 3.02942 4.56925 3.51825 3.69075 4.402C2.81167 5.28575 2.32983 6.45942 2.33333 7.706C2.33683 8.95259 2.82567 10.1228 3.70942 11.0018C4.59025 11.8774 5.75808 12.3593 7 12.3593H7.01342C8.26 12.3558 9.43075 11.8669 10.3093 10.9832C11.1883 10.0988 11.6702 8.92575 11.6667 7.67917C11.6661 7.35717 11.9263 7.09467 12.2483 7.09409ZM4.83758 7.28011C5.06566 7.05203 5.43433 7.05203 5.66241 7.28011L6.97141 8.58911L10.6447 4.39145C10.857 4.15053 11.2251 4.12486 11.4677 4.3372C11.7098 4.54895 11.7343 4.91761 11.522 5.16028L7.43866 9.82695C7.33249 9.94828 7.18083 10.02 7.01924 10.0259H6.99999C6.84541 10.0259 6.69724 9.96461 6.58758 9.85495L4.83758 8.10495C4.60949 7.87686 4.60949 7.5082 4.83758 7.28011Z" fill="white"/>
</mask>
<g mask="url(#mask0)">
<rect y="0.692505" width="14" height="14" fill="#0D1C2E"/>
</g>
</svg>
