<svg width="12" height="12" viewBox="0 0 12 12" fill="none" xmlns="http://www.w3.org/2000/svg">
<path fill-rule="evenodd" clip-rule="evenodd" d="M11.1217 3.96417L6.6475 0.901667C6.50314 0.80297 6.33237 0.750112 6.1575 0.75H5.8425C5.66763 0.750112 5.49686 0.80297 5.3525 0.901667L0.878335 3.96417C0.79802 4.0172 0.749786 4.10709 0.750001 4.20333V4.29667C0.749786 4.39291 0.79802 4.4828 0.878335 4.53583L5.3525 7.59833C5.49686 7.69703 5.66763 7.74989 5.8425 7.75H6.1575C6.33237 7.74989 6.50314 7.69703 6.6475 7.59833L11.1217 4.53583C11.202 4.4828 11.2502 4.39291 11.25 4.29667V4.20333C11.2502 4.10709 11.202 4.0172 11.1217 3.96417ZM6.06417 6.58333H5.93584L2.5 4.25L5.9125 1.91667H6.04084L9.5 4.25L6.06417 6.58333ZM9.89083 6.61831L11.1217 7.46414C11.202 7.51717 11.2502 7.60707 11.25 7.70331V7.79664C11.2502 7.89289 11.202 7.98278 11.1217 8.03581L6.6475 11.0983C6.50314 11.197 6.33237 11.2499 6.1575 11.25H5.8425C5.66763 11.2499 5.49686 11.197 5.3525 11.0983L0.878335 8.03581C0.79802 7.98278 0.749786 7.89289 0.750001 7.79664V7.70331C0.749786 7.60707 0.79802 7.51717 0.878335 7.46414L2.10917 6.61831L3.11833 7.32414L2.5 7.74998L5.95917 10.0833H6.0875L9.5 7.74998L8.85833 7.32414L9.89083 6.61831Z" fill="black"/>
</svg>
