<svg width="14" height="14" viewBox="0 0 14 14" fill="none" xmlns="http://www.w3.org/2000/svg">
<path fill-rule="evenodd" clip-rule="evenodd" d="M11.5148 2.4855C11.3124 2.2825 10.984 2.2825 10.7816 2.4855L2.48541 10.7817C2.38391 10.8832 2.33316 11.0156 2.33316 11.1486C2.33316 11.281 2.38391 11.414 2.48541 11.5149C2.68783 11.7173 3.01566 11.7173 3.21866 11.5149L11.5148 3.21875C11.7172 3.01575 11.7172 2.68792 11.5148 2.4855ZM9.33333 11.0833C8.85092 11.0833 8.45833 10.6908 8.45833 10.2083C8.45833 9.72593 8.85092 9.33335 9.33333 9.33335C9.81575 9.33335 10.2083 9.72593 10.2083 10.2083C10.2083 10.6908 9.81575 11.0833 9.33333 11.0833ZM9.33333 8.16668C8.2075 8.16668 7.29167 9.08251 7.29167 10.2083C7.29167 11.3342 8.2075 12.25 9.33333 12.25C10.4592 12.25 11.375 11.3342 11.375 10.2083C11.375 9.08251 10.4592 8.16668 9.33333 8.16668ZM4.66667 3.50002C5.14908 3.50002 5.54167 3.8926 5.54167 4.37502C5.54167 4.85743 5.14908 5.25002 4.66667 5.25002C4.18425 5.25002 3.79167 4.85743 3.79167 4.37502C3.79167 3.8926 4.18425 3.50002 4.66667 3.50002ZM4.66667 6.41668C5.7925 6.41668 6.70833 5.50085 6.70833 4.37502C6.70833 3.24918 5.7925 2.33335 4.66667 2.33335C3.54083 2.33335 2.625 3.24918 2.625 4.37502C2.625 5.50085 3.54083 6.41668 4.66667 6.41668Z" fill="#231F20"/>
<mask id="mask0" mask-type="alpha" maskUnits="userSpaceOnUse" x="2" y="2" width="10" height="11">
<path fill-rule="evenodd" clip-rule="evenodd" d="M11.5148 2.4855C11.3124 2.2825 10.984 2.2825 10.7816 2.4855L2.48541 10.7817C2.38391 10.8832 2.33316 11.0156 2.33316 11.1486C2.33316 11.281 2.38391 11.414 2.48541 11.5149C2.68783 11.7173 3.01566 11.7173 3.21866 11.5149L11.5148 3.21875C11.7172 3.01575 11.7172 2.68792 11.5148 2.4855ZM9.33333 11.0833C8.85092 11.0833 8.45833 10.6908 8.45833 10.2083C8.45833 9.72593 8.85092 9.33335 9.33333 9.33335C9.81575 9.33335 10.2083 9.72593 10.2083 10.2083C10.2083 10.6908 9.81575 11.0833 9.33333 11.0833ZM9.33333 8.16668C8.2075 8.16668 7.29167 9.08251 7.29167 10.2083C7.29167 11.3342 8.2075 12.25 9.33333 12.25C10.4592 12.25 11.375 11.3342 11.375 10.2083C11.375 9.08251 10.4592 8.16668 9.33333 8.16668ZM4.66667 3.50002C5.14908 3.50002 5.54167 3.8926 5.54167 4.37502C5.54167 4.85743 5.14908 5.25002 4.66667 5.25002C4.18425 5.25002 3.79167 4.85743 3.79167 4.37502C3.79167 3.8926 4.18425 3.50002 4.66667 3.50002ZM4.66667 6.41668C5.7925 6.41668 6.70833 5.50085 6.70833 4.37502C6.70833 3.24918 5.7925 2.33335 4.66667 2.33335C3.54083 2.33335 2.625 3.24918 2.625 4.37502C2.625 5.50085 3.54083 6.41668 4.66667 6.41668Z" fill="white"/>
</mask>
<g mask="url(#mask0)">
<rect width="14" height="14" fill="#0D1C2E"/>
</g>
</svg>
