<svg width="14" height="14" viewBox="0 0 14 14" fill="none" xmlns="http://www.w3.org/2000/svg">
<path fill-rule="evenodd" clip-rule="evenodd" d="M10.5 5.83333C10.5 5.51192 10.2387 5.25 9.91667 5.25C9.59467 5.25 9.33334 5.51192 9.33334 5.83333C9.33334 6.15475 9.59467 6.41667 9.91667 6.41667C10.2387 6.41667 10.5 6.15475 10.5 5.83333ZM11.6667 5.83333C11.6667 6.79817 10.8815 7.58333 9.91667 7.58333C8.95184 7.58333 8.16667 6.79817 8.16667 5.83333C8.16667 4.8685 8.95184 4.08333 9.91667 4.08333C10.8815 4.08333 11.6667 4.8685 11.6667 5.83333ZM6.41667 4.08333C6.41667 3.43992 5.89342 2.91667 5.25 2.91667C4.60659 2.91667 4.08334 3.43992 4.08334 4.08333C4.08334 4.72675 4.60659 5.25 5.25 5.25C5.89342 5.25 6.41667 4.72675 6.41667 4.08333ZM7.58334 4.08333C7.58334 5.37017 6.53684 6.41667 5.25 6.41667C3.96317 6.41667 2.91667 5.37017 2.91667 4.08333C2.91667 2.7965 3.96317 1.75 5.25 1.75C6.53684 1.75 7.58334 2.7965 7.58334 4.08333ZM8.13167 8.77683C8.63859 8.38483 9.26276 8.16667 9.91667 8.16667C11.5249 8.16667 12.8333 9.47508 12.8333 11.0833C12.8333 11.4053 12.5726 11.6667 12.25 11.6667C11.9274 11.6667 11.6667 11.4053 11.6667 11.0833C11.6667 10.1185 10.8815 9.33333 9.91667 9.33333C9.51826 9.33333 9.13967 9.46983 8.83401 9.71192C9.15134 10.2929 9.33334 10.9591 9.33334 11.6667C9.33334 11.9887 9.07259 12.25 8.75001 12.25C8.42742 12.25 8.16667 11.9887 8.16667 11.6667C8.16667 10.0584 6.85826 8.75 5.25001 8.75C3.64176 8.75 2.33334 10.0584 2.33334 11.6667C2.33334 11.9887 2.07259 12.25 1.75001 12.25C1.42742 12.25 1.16667 11.9887 1.16667 11.6667C1.16667 9.415 2.99892 7.58333 5.25001 7.58333C6.37409 7.58333 7.39259 8.04008 8.13167 8.77683Z" fill="#231F20"/>
<mask id="mask0" mask-type="alpha" maskUnits="userSpaceOnUse" x="1" y="1" width="12" height="12">
<path fill-rule="evenodd" clip-rule="evenodd" d="M10.5 5.83333C10.5 5.51192 10.2387 5.25 9.91667 5.25C9.59467 5.25 9.33334 5.51192 9.33334 5.83333C9.33334 6.15475 9.59467 6.41667 9.91667 6.41667C10.2387 6.41667 10.5 6.15475 10.5 5.83333ZM11.6667 5.83333C11.6667 6.79817 10.8815 7.58333 9.91667 7.58333C8.95184 7.58333 8.16667 6.79817 8.16667 5.83333C8.16667 4.8685 8.95184 4.08333 9.91667 4.08333C10.8815 4.08333 11.6667 4.8685 11.6667 5.83333ZM6.41667 4.08333C6.41667 3.43992 5.89342 2.91667 5.25 2.91667C4.60659 2.91667 4.08334 3.43992 4.08334 4.08333C4.08334 4.72675 4.60659 5.25 5.25 5.25C5.89342 5.25 6.41667 4.72675 6.41667 4.08333ZM7.58334 4.08333C7.58334 5.37017 6.53684 6.41667 5.25 6.41667C3.96317 6.41667 2.91667 5.37017 2.91667 4.08333C2.91667 2.7965 3.96317 1.75 5.25 1.75C6.53684 1.75 7.58334 2.7965 7.58334 4.08333ZM8.13167 8.77683C8.63859 8.38483 9.26276 8.16667 9.91667 8.16667C11.5249 8.16667 12.8333 9.47508 12.8333 11.0833C12.8333 11.4053 12.5726 11.6667 12.25 11.6667C11.9274 11.6667 11.6667 11.4053 11.6667 11.0833C11.6667 10.1185 10.8815 9.33333 9.91667 9.33333C9.51826 9.33333 9.13967 9.46983 8.83401 9.71192C9.15134 10.2929 9.33334 10.9591 9.33334 11.6667C9.33334 11.9887 9.07259 12.25 8.75001 12.25C8.42742 12.25 8.16667 11.9887 8.16667 11.6667C8.16667 10.0584 6.85826 8.75 5.25001 8.75C3.64176 8.75 2.33334 10.0584 2.33334 11.6667C2.33334 11.9887 2.07259 12.25 1.75001 12.25C1.42742 12.25 1.16667 11.9887 1.16667 11.6667C1.16667 9.415 2.99892 7.58333 5.25001 7.58333C6.37409 7.58333 7.39259 8.04008 8.13167 8.77683Z" fill="white"/>
</mask>
<g mask="url(#mask0)">
<rect width="14" height="14" fill="#0D1C2E"/>
</g>
</svg>
