<svg width="14" height="14" viewBox="0 0 14 14" fill="none" xmlns="http://www.w3.org/2000/svg">
<path d="M12.8333 7.87763V8.46267C12.8333 8.62422 12.7028 8.75519 12.5417 8.75519H12.145C11.58 8.76605 11.0884 8.3692 10.9783 7.81328L10.0392 3.00429C10.02 2.95485 9.97249 2.92229 9.91959 2.92229C9.86669 2.92229 9.81921 2.95485 9.80001 3.00429L8.26584 11.1948C8.1501 11.7972 7.63309 12.2385 7.02163 12.2567C6.41016 12.275 5.86792 11.8653 5.71667 11.2708L4.23501 5.33858C4.22179 5.28445 4.17389 5.24603 4.11834 5.24497H4.00751C3.95569 5.24615 3.90967 5.27846 3.89084 5.32688L3.02167 7.95369C2.86319 8.43258 2.41645 8.75564 1.91334 8.75519H1.45834C1.29726 8.75519 1.16667 8.62422 1.16667 8.46267V7.87763C1.16667 7.71608 1.29726 7.58511 1.45834 7.58511H1.91334L2.78834 4.95831C2.96206 4.43083 3.45361 4.07465 4.00751 4.0749H4.11834C4.70834 4.07571 5.22251 4.47812 5.36667 5.05191L6.84834 11.0017C6.86156 11.0559 6.90945 11.0943 6.96501 11.0953C7.05834 11.0953 7.10501 11.0544 7.11667 10.9959L8.65084 2.80537C8.76786 2.19695 9.29883 1.75732 9.91667 1.75732C10.5345 1.75732 11.0655 2.19695 11.1825 2.80537L12.145 7.58511H12.5417C12.7028 7.58511 12.8333 7.71608 12.8333 7.87763Z" fill="black"/>
</svg>
