<svg width="12" height="12" viewBox="0 0 12 12" fill="none" xmlns="http://www.w3.org/2000/svg">
<path fill-rule="evenodd" clip-rule="evenodd" d="M10.0833 1.33335H9.5V0.458354C9.5 0.297271 9.36942 0.166687 9.20833 0.166687H8.625C8.46392 0.166687 8.33333 0.297271 8.33333 0.458354V1.33335H3.66667V0.458354C3.66667 0.297271 3.53608 0.166687 3.375 0.166687H2.79167C2.63058 0.166687 2.5 0.297271 2.5 0.458354V1.33335H1.91667C1.27233 1.33335 0.75 1.85569 0.75 2.50002V10.0834C0.75 10.7277 1.27233 11.25 1.91667 11.25H10.0833C10.7277 11.25 11.25 10.7277 11.25 10.0834V2.50002C11.25 1.85569 10.7277 1.33335 10.0833 1.33335ZM10.0833 10.0834H1.91667V3.66669H10.0833V10.0834ZM5.38166 8.33407C5.30432 8.33407 5.23042 8.30208 5.1775 8.24569L3.935 6.99152C3.82383 6.87811 3.82383 6.6966 3.935 6.58319L4.24416 6.28569C4.35956 6.17381 4.54294 6.17381 4.65833 6.28569L5.37583 7.00902L7.33583 5.04902C7.45122 4.93715 7.63461 4.93715 7.75 5.04902L8.065 5.35819C8.17687 5.47358 8.17687 5.65696 8.065 5.77235L5.58583 8.24569C5.5329 8.30208 5.45901 8.33407 5.38166 8.33407Z" fill="black"/>
</svg>
