<svg width="14" height="15" viewBox="0 0 14 15" fill="none" xmlns="http://www.w3.org/2000/svg">
<path fill-rule="evenodd" clip-rule="evenodd" d="M10.5 6.45467C10.5 6.13325 10.2387 5.87134 9.91667 5.87134C9.59467 5.87134 9.33334 6.13325 9.33334 6.45467C9.33334 6.77609 9.59467 7.038 9.91667 7.038C10.2387 7.038 10.5 6.77609 10.5 6.45467ZM11.6667 6.45467C11.6667 7.4195 10.8815 8.20467 9.91667 8.20467C8.95184 8.20467 8.16667 7.4195 8.16667 6.45467C8.16667 5.48984 8.95184 4.70467 9.91667 4.70467C10.8815 4.70467 11.6667 5.48984 11.6667 6.45467ZM6.41667 4.70467C6.41667 4.06125 5.89342 3.538 5.25 3.538C4.60659 3.538 4.08334 4.06125 4.08334 4.70467C4.08334 5.34809 4.60659 5.87134 5.25 5.87134C5.89342 5.87134 6.41667 5.34809 6.41667 4.70467ZM7.58334 4.70467C7.58334 5.9915 6.53684 7.038 5.25 7.038C3.96317 7.038 2.91667 5.9915 2.91667 4.70467C2.91667 3.41784 3.96317 2.37134 5.25 2.37134C6.53684 2.37134 7.58334 3.41784 7.58334 4.70467ZM8.13167 9.39817C8.63859 9.00617 9.26276 8.788 9.91667 8.788C11.5249 8.788 12.8333 10.0964 12.8333 11.7047C12.8333 12.0267 12.5726 12.288 12.25 12.288C11.9274 12.288 11.6667 12.0267 11.6667 11.7047C11.6667 10.7398 10.8815 9.95467 9.91667 9.95467C9.51826 9.95467 9.13967 10.0912 8.83401 10.3333C9.15134 10.9143 9.33334 11.5804 9.33334 12.288C9.33334 12.61 9.07259 12.8713 8.75001 12.8713C8.42742 12.8713 8.16667 12.61 8.16667 12.288C8.16667 10.6798 6.85826 9.37134 5.25001 9.37134C3.64176 9.37134 2.33334 10.6798 2.33334 12.288C2.33334 12.61 2.07259 12.8713 1.75001 12.8713C1.42742 12.8713 1.16667 12.61 1.16667 12.288C1.16667 10.0363 2.99892 8.20467 5.25001 8.20467C6.37409 8.20467 7.39259 8.66142 8.13167 9.39817Z" fill="#231F20"/>
<mask id="mask0" mask-type="alpha" maskUnits="userSpaceOnUse" x="1" y="2" width="12" height="11">
<path fill-rule="evenodd" clip-rule="evenodd" d="M10.5 6.45467C10.5 6.13325 10.2387 5.87134 9.91667 5.87134C9.59467 5.87134 9.33334 6.13325 9.33334 6.45467C9.33334 6.77609 9.59467 7.038 9.91667 7.038C10.2387 7.038 10.5 6.77609 10.5 6.45467ZM11.6667 6.45467C11.6667 7.4195 10.8815 8.20467 9.91667 8.20467C8.95184 8.20467 8.16667 7.4195 8.16667 6.45467C8.16667 5.48984 8.95184 4.70467 9.91667 4.70467C10.8815 4.70467 11.6667 5.48984 11.6667 6.45467ZM6.41667 4.70467C6.41667 4.06125 5.89342 3.538 5.25 3.538C4.60659 3.538 4.08334 4.06125 4.08334 4.70467C4.08334 5.34809 4.60659 5.87134 5.25 5.87134C5.89342 5.87134 6.41667 5.34809 6.41667 4.70467ZM7.58334 4.70467C7.58334 5.9915 6.53684 7.038 5.25 7.038C3.96317 7.038 2.91667 5.9915 2.91667 4.70467C2.91667 3.41784 3.96317 2.37134 5.25 2.37134C6.53684 2.37134 7.58334 3.41784 7.58334 4.70467ZM8.13167 9.39817C8.63859 9.00617 9.26276 8.788 9.91667 8.788C11.5249 8.788 12.8333 10.0964 12.8333 11.7047C12.8333 12.0267 12.5726 12.288 12.25 12.288C11.9274 12.288 11.6667 12.0267 11.6667 11.7047C11.6667 10.7398 10.8815 9.95467 9.91667 9.95467C9.51826 9.95467 9.13967 10.0912 8.83401 10.3333C9.15134 10.9143 9.33334 11.5804 9.33334 12.288C9.33334 12.61 9.07259 12.8713 8.75001 12.8713C8.42742 12.8713 8.16667 12.61 8.16667 12.288C8.16667 10.6798 6.85826 9.37134 5.25001 9.37134C3.64176 9.37134 2.33334 10.6798 2.33334 12.288C2.33334 12.61 2.07259 12.8713 1.75001 12.8713C1.42742 12.8713 1.16667 12.61 1.16667 12.288C1.16667 10.0363 2.99892 8.20467 5.25001 8.20467C6.37409 8.20467 7.39259 8.66142 8.13167 9.39817Z" fill="white"/>
</mask>
<g mask="url(#mask0)">
<rect y="0.621338" width="14" height="14" fill="#0D1C2E"/>
</g>
</svg>
