<svg width="10" height="13" viewBox="0 0 10 13" fill="none" xmlns="http://www.w3.org/2000/svg">
<path fill-rule="evenodd" clip-rule="evenodd" d="M0.333328 5.02989C0.333328 2.45256 2.42267 0.36322 4.99999 0.36322C7.57732 0.36322 9.66666 2.45256 9.66666 5.02989C9.66666 7.22115 8.60286 8.0784 7.61113 8.87758C6.96073 9.40169 6.34133 9.90083 6.07333 10.7349L5.77583 11.6332C5.69241 11.8814 5.45392 12.0435 5.19249 12.0299H4.86583C4.60441 12.0435 4.36591 11.8814 4.28249 11.6332L3.98499 10.7349C3.70626 9.90328 3.07819 9.40463 2.42016 8.88219C1.41191 8.0817 0.333328 7.22537 0.333328 5.02989ZM4.99999 1.96738C5.72487 1.96738 6.31249 2.55501 6.31249 3.27988C6.31249 4.00476 5.72487 4.59238 4.99999 4.59238C4.27512 4.59238 3.68749 4.00476 3.68749 3.27988C3.68594 2.93131 3.82372 2.59657 4.0702 2.35008C4.31668 2.1036 4.65142 1.96582 4.99999 1.96738ZM5 8.52988C3.87455 8.52602 2.81963 7.98119 2.16499 7.06572L2.56749 6.25489C2.76613 5.86068 3.17024 5.61235 3.61166 5.61322H6.38833C6.82975 5.61235 7.23386 5.86068 7.4325 6.25489L7.835 7.06572C7.18037 7.98119 6.12544 8.52602 5 8.52988Z" fill="black"/>
</svg>
