<svg width="12" height="10" viewBox="0 0 12 10" fill="none" xmlns="http://www.w3.org/2000/svg">
<path fill-rule="evenodd" clip-rule="evenodd" d="M10.3283 6.16667H11.25C11.5722 6.16667 11.8333 6.42784 11.8333 6.75V9.08333C11.8333 9.4055 11.5722 9.66667 11.25 9.66667H8.91667C8.59451 9.66667 8.33334 9.4055 8.33334 9.08333V8.5H3.66667V9.08333C3.66667 9.4055 3.4055 9.66667 3.08334 9.66667H0.750005C0.427839 9.66667 0.166672 9.4055 0.166672 9.08333V6.75C0.166672 6.42784 0.427839 6.16667 0.750005 6.16667H1.67167L2.13834 3.83334H1.91667C1.59451 3.83334 1.33334 3.57217 1.33334 3.25V0.916669C1.33334 0.594503 1.59451 0.333336 1.91667 0.333336H4.25001C4.57217 0.333336 4.83334 0.594503 4.83334 0.916669V1.5H7.16667V0.916669C7.16667 0.594503 7.42784 0.333336 7.75001 0.333336H10.0833C10.4055 0.333336 10.6667 0.594503 10.6667 0.916669V3.25C10.6667 3.57217 10.4055 3.83334 10.0833 3.83334H9.86167L10.3283 6.16667ZM9.5 1.5H8.33334V2.66667H9.5V1.5ZM2.50001 1.5H3.66667V2.66667H2.50001V1.5ZM1.33334 8.5H2.50001V7.33334H1.33334V8.5ZM8.33334 6.75V7.33334H3.66667V6.75C3.66667 6.42784 3.40551 6.16667 3.08334 6.16667H2.86167L3.32834 3.83334H4.25001C4.57217 3.83334 4.83334 3.57217 4.83334 3.25V2.66667H7.16667V3.25C7.16667 3.57217 7.42784 3.83334 7.75001 3.83334H8.67167L9.13834 6.16667H8.91667C8.59451 6.16667 8.33334 6.42784 8.33334 6.75ZM9.5 8.5H10.6667V7.33334H9.5V8.5Z" fill="black"/>
</svg>
