<svg width="11" height="13" viewBox="0 0 11 13" fill="none" xmlns="http://www.w3.org/2000/svg">
<path fill-rule="evenodd" clip-rule="evenodd" d="M6.76124 1.52989C6.76124 0.885555 7.28449 0.36322 7.92995 0.36322C8.57541 0.36322 9.09865 0.885555 9.09865 1.52989C9.09865 2.17422 8.57541 2.69655 7.92995 2.69655C7.28449 2.69655 6.76124 2.17422 6.76124 1.52989ZM10.0336 5.46739L8.90581 5.23989C8.77378 5.21048 8.65605 5.13626 8.57272 5.02989L7.27546 3.51905C6.83112 2.99701 6.17941 2.69626 5.49318 2.69655H3.70505C3.33306 2.69745 2.98371 2.87506 2.76424 3.17489L1.78253 4.52239C1.73724 4.58571 1.71917 4.66446 1.73234 4.74114C1.74551 4.81782 1.78882 4.88607 1.85265 4.93072L2.32013 5.26905C2.38228 5.31645 2.46114 5.3364 2.5384 5.32428C2.61566 5.31216 2.68459 5.26902 2.72918 5.20489L3.57649 4.03822C3.66169 3.92785 3.79337 3.86321 3.93295 3.86322H4.8387L3.42456 5.73572L3.33106 5.86405C3.2348 5.99185 3.1953 6.1535 3.22181 6.31119C3.24833 6.46888 3.33852 6.6088 3.47131 6.69822L5.98403 8.36655C6.10377 8.45097 6.17553 8.58773 6.17687 8.73405V11.7382C6.17687 11.8993 6.30768 12.0299 6.46905 12.0299H7.0534C7.21477 12.0299 7.34558 11.8993 7.34558 11.7382V8.52989C7.34681 8.13866 7.15152 7.77285 6.8255 7.55572L5.59252 6.71572L6.93653 4.93655L7.66697 5.79989C7.92279 6.10054 8.27285 6.3061 8.66038 6.38322L9.89921 6.62822C9.98518 6.64574 10.0745 6.62376 10.1425 6.56835C10.2104 6.51295 10.2498 6.42998 10.2498 6.34239V5.75905C10.2545 5.62347 10.1649 5.50258 10.0336 5.46739ZM2.53634 8.52998C2.67451 8.53092 2.8048 8.46588 2.88696 8.35498L3.29016 7.80665L4.27772 8.45415L3.69337 9.22998C3.47265 9.52376 3.12626 9.69665 2.7584 9.69665H0.625505C0.46414 9.69665 0.333328 9.56607 0.333328 9.40498V8.82165C0.333328 8.66057 0.46414 8.52998 0.625505 8.52998H2.53634Z" fill="black"/>
</svg>
