<svg width="12" height="12" viewBox="0 0 12 12" fill="none" xmlns="http://www.w3.org/2000/svg">
<path fill-rule="evenodd" clip-rule="evenodd" d="M0.458338 7.16667C0.297255 7.16667 0.166672 7.03608 0.166672 6.875V5.65583C0.167316 5.5028 0.228071 5.35615 0.335838 5.2475L4.66417 0.919167C4.77282 0.811399 4.91947 0.750644 5.07251 0.75H6.92751C7.08054 0.750644 7.22719 0.811399 7.33584 0.919167L11.6642 5.2475C11.7719 5.35615 11.8327 5.5028 11.8333 5.65583V6.875C11.8333 7.03608 11.7028 7.16667 11.5417 7.16667H10.6667V10.6667C10.6667 10.9888 10.4055 11.25 10.0833 11.25H7.16667C6.84451 11.25 6.58334 10.9888 6.58334 10.6667V7.89583C6.58334 7.81529 6.51805 7.75 6.43751 7.75H5.56251C5.48196 7.75 5.41667 7.81529 5.41667 7.89583V10.6667C5.41667 10.9888 5.1555 11.25 4.83334 11.25H1.91667C1.59451 11.25 1.33334 10.9888 1.33334 10.6667V7.16667H0.458338ZM7.75 7.16667V10.0833H9.5V6.29167C9.5 6.13058 9.63059 6 9.79167 6H10.6667C10.6397 5.8951 10.5805 5.80127 10.4975 5.73167L6.6825 1.91667H5.3175L1.5025 5.73167C1.43022 5.80522 1.38148 5.89864 1.3625 6H2.20834C2.36942 6 2.5 6.13058 2.5 6.29167V10.0833H4.25V7.16667C4.25 6.8445 4.51117 6.58333 4.83334 6.58333H7.16667C7.48884 6.58333 7.75 6.8445 7.75 7.16667Z" fill="black"/>
</svg>
