<svg width="12" height="10" viewBox="0 0 12 10" fill="none" xmlns="http://www.w3.org/2000/svg">
<path fill-rule="evenodd" clip-rule="evenodd" d="M1.625 0.916668H1.04167C0.880584 0.916668 0.75 1.04725 0.75 1.20833V1.79167C0.75 1.95275 0.880584 2.08333 1.04167 2.08333H1.625C1.78608 2.08333 1.91667 1.95275 1.91667 1.79167V1.20833C1.91667 1.04725 1.78608 0.916668 1.625 0.916668ZM3.375 0.916668H10.9583C11.1194 0.916668 11.25 1.04725 11.25 1.20833V1.79167C11.25 1.95275 11.1194 2.08333 10.9583 2.08333H3.375C3.21392 2.08333 3.08333 1.95275 3.08333 1.79167V1.20833C3.08333 1.04725 3.21392 0.916668 3.375 0.916668ZM0.75 4.70833V5.29167C0.75 5.45275 0.880584 5.58333 1.04167 5.58333H1.625C1.78608 5.58333 1.91667 5.45275 1.91667 5.29167V4.70833C1.91667 4.54725 1.78608 4.41667 1.625 4.41667H1.04167C0.880584 4.41667 0.75 4.54725 0.75 4.70833ZM3.375 4.41667H10.9583C11.1194 4.41667 11.25 4.54725 11.25 4.70833V5.29167C11.25 5.45275 11.1194 5.58333 10.9583 5.58333H3.375C3.21392 5.58333 3.08333 5.45275 3.08333 5.29167V4.70833C3.08333 4.54725 3.21392 4.41667 3.375 4.41667ZM0.75 8.20833V8.79167C0.75 8.95275 0.880584 9.08334 1.04167 9.08334H1.625C1.78608 9.08334 1.91667 8.95275 1.91667 8.79167V8.20833C1.91667 8.04725 1.78608 7.91667 1.625 7.91667H1.04167C0.880584 7.91667 0.75 8.04725 0.75 8.20833ZM3.375 7.91667H10.9583C11.1194 7.91667 11.25 8.04725 11.25 8.20833V8.79167C11.25 8.95275 11.1194 9.08334 10.9583 9.08334H3.375C3.21392 9.08334 3.08333 8.95275 3.08333 8.79167V8.20833C3.08333 8.04725 3.21392 7.91667 3.375 7.91667Z" fill="black"/>
</svg>
