<svg width="12" height="13" viewBox="0 0 12 13" fill="none" xmlns="http://www.w3.org/2000/svg">
<path fill-rule="evenodd" clip-rule="evenodd" d="M9.50001 0.36322H2.50001C1.21134 0.36322 0.166672 1.40789 0.166672 2.69655V11.7382C0.166672 11.8993 0.297255 12.0299 0.458338 12.0299C0.535407 12.0294 0.609029 11.9979 0.662505 11.9424L2.41251 10.1924C2.74753 9.86619 3.19916 9.68764 3.66667 9.69655H9.50001C10.7887 9.69655 11.8333 8.65189 11.8333 7.36322V2.69655C11.8333 1.40789 10.7887 0.36322 9.50001 0.36322ZM10.6667 7.84739C10.6683 7.92522 10.6381 8.00034 10.583 8.05539C10.528 8.11044 10.4528 8.14066 10.375 8.13905C10.2828 8.14099 10.1955 8.09735 10.1417 8.02239L7.54584 4.56322C7.48942 4.49188 7.40346 4.45028 7.31251 4.45028C7.22155 4.45028 7.1356 4.49188 7.07917 4.56322L5.41667 6.72739C5.361 6.80012 5.27493 6.84316 5.18334 6.84405C5.09742 6.84414 5.01603 6.80559 4.96167 6.73905L4.09834 5.71822C4.04217 5.65077 3.95861 5.6122 3.87084 5.61322C3.78248 5.61526 3.6994 5.65573 3.64334 5.72405L1.85251 8.02239C1.79865 8.09345 1.71416 8.13461 1.62501 8.13322C1.54717 8.13482 1.47205 8.10461 1.417 8.04956C1.36195 7.99451 1.33173 7.91939 1.33334 7.84155V2.69655C1.33334 2.05222 1.85567 1.52989 2.50001 1.52989H9.50001C10.1443 1.52989 10.6667 2.05222 10.6667 2.69655V7.84739ZM5.41667 3.57155C5.41667 4.0548 5.02492 4.44655 4.54167 4.44655C4.05842 4.44655 3.66667 4.0548 3.66667 3.57155C3.66667 3.0883 4.05842 2.69655 4.54167 2.69655C5.02492 2.69655 5.41667 3.0883 5.41667 3.57155Z" fill="black"/>
</svg>
