<svg width="12" height="12" viewBox="0 0 12 12" fill="none" xmlns="http://www.w3.org/2000/svg">
<path fill-rule="evenodd" clip-rule="evenodd" d="M10.375 1.91667H1.62501C1.46392 1.91667 1.33334 1.78608 1.33334 1.625V1.04167C1.33334 0.880584 1.46392 0.75 1.62501 0.75H10.375C10.5361 0.75 10.6667 0.880584 10.6667 1.04167V1.625C10.6667 1.78608 10.5361 1.91667 10.375 1.91667ZM11.7108 5.17167L10.83 3.42167C10.7302 3.22362 10.5268 3.09929 10.305 3.10083H1.69501C1.47325 3.09929 1.26979 3.22362 1.17001 3.42167L0.289172 5.17167C0.208793 5.33294 0.166864 5.51064 0.166672 5.69083V6C0.166672 6.32217 0.427839 6.58333 0.750005 6.58333H1.33334V10.6667C1.33334 10.9888 1.59451 11.25 1.91667 11.25H4.83334C5.1555 11.25 5.41667 10.9888 5.41667 10.6667V9.0625C5.41667 8.98196 5.48196 8.91667 5.56251 8.91667H6.43751C6.51805 8.91667 6.58334 8.98196 6.58334 9.0625V10.6667C6.58334 10.9888 6.84451 11.25 7.16667 11.25H10.0833C10.4055 11.25 10.6667 10.9888 10.6667 10.6667V6.58333H11.25C11.5722 6.58333 11.8333 6.32217 11.8333 6V5.69083C11.8331 5.51064 11.7912 5.33294 11.7108 5.17167ZM9.5 10.0833H7.75V8.33333C7.75 8.01117 7.48884 7.75 7.16667 7.75H4.83334C4.51117 7.75 4.25 8.01117 4.25 8.33333V10.0833H2.50001V6.58333H9.5V10.0833Z" fill="black"/>
</svg>
