<svg width="14" height="14" viewBox="0 0 14 14" fill="none" xmlns="http://www.w3.org/2000/svg">
<path fill-rule="evenodd" clip-rule="evenodd" d="M11.0833 10.5C11.0833 10.822 10.822 11.0833 10.5 11.0833C10.178 11.0833 9.91667 10.822 9.91667 10.5C9.91667 10.178 10.178 9.91667 10.5 9.91667C10.822 9.91667 11.0833 10.178 11.0833 10.5ZM7 8.75H2.33334L2.34267 2.91667H8.75L8.74067 8.75H7ZM4.08334 10.5C4.08334 10.822 3.822 11.0833 3.5 11.0833C3.178 11.0833 2.91667 10.822 2.91667 10.5C2.91667 10.178 3.178 9.91667 3.5 9.91667C3.822 9.91667 4.08334 10.178 4.08334 10.5ZM11.6667 7.27998V8.74998H9.91667V5.88056L11.6667 7.27998ZM12.6146 6.54442L9.91667 4.38608V2.91667C9.91667 2.27325 9.44242 1.75 8.85909 1.75H2.22367C1.64092 1.75 1.16667 2.27325 1.16667 2.91667V8.75C1.16667 9.25925 1.46592 9.68858 1.87892 9.84783C1.79726 10.0497 1.75001 10.269 1.75001 10.5C1.75001 11.4648 2.53517 12.25 3.50001 12.25C4.46484 12.25 5.25001 11.4648 5.25001 10.5C5.25001 10.2941 5.20801 10.0998 5.14209 9.91667H7.00001H8.85792C8.79201 10.0998 8.75001 10.2941 8.75001 10.5C8.75001 11.4648 9.53517 12.25 10.5 12.25C11.4648 12.25 12.25 11.4648 12.25 10.5C12.25 10.2941 12.208 10.0998 12.1421 9.91667H12.25C12.5726 9.91667 12.8333 9.65592 12.8333 9.33333V7C12.8333 6.82267 12.7528 6.65525 12.6146 6.54442Z" fill="#231F20"/>
<mask id="mask0" mask-type="alpha" maskUnits="userSpaceOnUse" x="1" y="1" width="12" height="12">
<path fill-rule="evenodd" clip-rule="evenodd" d="M11.0833 10.5C11.0833 10.822 10.822 11.0833 10.5 11.0833C10.178 11.0833 9.91667 10.822 9.91667 10.5C9.91667 10.178 10.178 9.91667 10.5 9.91667C10.822 9.91667 11.0833 10.178 11.0833 10.5ZM7 8.75H2.33334L2.34267 2.91667H8.75L8.74067 8.75H7ZM4.08334 10.5C4.08334 10.822 3.822 11.0833 3.5 11.0833C3.178 11.0833 2.91667 10.822 2.91667 10.5C2.91667 10.178 3.178 9.91667 3.5 9.91667C3.822 9.91667 4.08334 10.178 4.08334 10.5ZM11.6667 7.27998V8.74998H9.91667V5.88056L11.6667 7.27998ZM12.6146 6.54442L9.91667 4.38608V2.91667C9.91667 2.27325 9.44242 1.75 8.85909 1.75H2.22367C1.64092 1.75 1.16667 2.27325 1.16667 2.91667V8.75C1.16667 9.25925 1.46592 9.68858 1.87892 9.84783C1.79726 10.0497 1.75001 10.269 1.75001 10.5C1.75001 11.4648 2.53517 12.25 3.50001 12.25C4.46484 12.25 5.25001 11.4648 5.25001 10.5C5.25001 10.2941 5.20801 10.0998 5.14209 9.91667H7.00001H8.85792C8.79201 10.0998 8.75001 10.2941 8.75001 10.5C8.75001 11.4648 9.53517 12.25 10.5 12.25C11.4648 12.25 12.25 11.4648 12.25 10.5C12.25 10.2941 12.208 10.0998 12.1421 9.91667H12.25C12.5726 9.91667 12.8333 9.65592 12.8333 9.33333V7C12.8333 6.82267 12.7528 6.65525 12.6146 6.54442Z" fill="white"/>
</mask>
<g mask="url(#mask0)">
<rect width="14" height="14" fill="#0D1C2E"/>
</g>
</svg>
