<svg width="14" height="15" viewBox="0 0 14 15" fill="none" xmlns="http://www.w3.org/2000/svg">
<path fill-rule="evenodd" clip-rule="evenodd" d="M6.63513 11.9342H7.36488V11.4868C7.36488 10.9414 7.7003 10.4514 8.21888 10.2373C8.75555 10.0139 9.3418 10.1235 9.72797 10.512L10.0424 10.8276L10.5604 10.3096L10.2425 9.99229C9.85571 9.60612 9.74663 9.02045 9.96422 8.5007C9.96422 8.5007 9.9648 8.50012 9.9648 8.49954L9.97122 8.4832C10.1835 7.96812 10.6741 7.63212 11.2195 7.63212H11.6664V6.90295H11.2195C10.6741 6.90295 10.1835 6.56754 9.97005 6.04895C9.74547 5.51229 9.85571 4.92604 10.2442 4.53929L10.5598 4.22487L10.0424 3.70745L9.72446 4.02537C9.3383 4.41154 8.75321 4.52062 8.23346 4.30362C7.70088 4.0837 7.36488 3.5937 7.36488 3.04829V2.60087H6.63513V3.04829C6.63513 3.5937 6.29972 4.0837 5.78113 4.29779C5.24505 4.52237 4.6588 4.41212 4.27205 4.02304L3.95763 3.70745L3.43963 4.22545L3.75755 4.54279C4.14372 4.92895 4.25338 5.51462 4.0358 6.03437C3.81647 6.56695 3.32588 6.90295 2.78047 6.90295H2.33305V7.63212H2.78047C3.32588 7.63212 3.81647 7.96754 4.02997 8.48612C4.25455 9.02279 4.1443 9.60904 3.7558 9.99579L3.44022 10.3102L3.95763 10.8276L4.27555 10.5097C4.66172 10.1235 5.2468 10.0145 5.76655 10.2315C6.29913 10.4514 6.63513 10.9414 6.63513 11.4868V11.9342ZM7.5498 13.1009H6.44613C5.90713 13.1009 5.46847 12.6622 5.46847 12.1232V11.4868C5.46847 11.401 5.40022 11.3421 5.33605 11.3159C5.25205 11.2815 5.16222 11.2745 5.10038 11.3345L4.65122 11.7843C4.26855 12.1658 3.64672 12.167 3.26463 11.7843L2.48297 11.0026C2.29747 10.8171 2.19597 10.571 2.19597 10.3085C2.19655 10.0465 2.29863 9.80037 2.48472 9.61487L2.93272 9.16862C2.99397 9.10737 2.98755 9.01754 2.96013 8.95279C2.92513 8.86704 2.8668 8.79879 2.78047 8.79879H2.14813C1.6068 8.79879 1.16638 8.35895 1.16638 7.81762V6.71395C1.16638 6.17437 1.60505 5.73629 2.14463 5.73629H2.78047C2.86622 5.73629 2.92513 5.66745 2.95138 5.60329C2.98638 5.51929 2.99338 5.42887 2.93272 5.3682L2.48297 4.91904C2.10147 4.53579 2.10147 3.91395 2.48297 3.53245L3.26463 2.75079C3.45013 2.56529 3.69572 2.46379 3.95763 2.46379H3.9588C4.22072 2.46379 4.46747 2.56587 4.65238 2.75195L5.09863 3.20054C5.15988 3.26237 5.2503 3.25537 5.31505 3.22795C5.40022 3.19237 5.46847 3.13404 5.46847 3.04829V2.41595C5.46847 1.87462 5.90888 1.4342 6.45022 1.4342H7.55388C8.09288 1.4342 8.53155 1.87287 8.53155 2.41187V3.04829C8.53155 3.13404 8.5998 3.19295 8.66397 3.2192C8.74855 3.2542 8.83838 3.26179 8.89963 3.20054L9.3488 2.75079C9.73147 2.36929 10.3533 2.36812 10.7354 2.75079L11.5176 3.53304C11.7031 3.71795 11.8046 3.96412 11.804 4.22662C11.804 4.48795 11.702 4.7347 11.5159 4.91962L11.0673 5.36645C11.006 5.4277 11.0125 5.51754 11.0399 5.58229C11.0749 5.66804 11.1332 5.73629 11.2195 5.73629H11.8519C12.3932 5.73629 12.833 6.17612 12.833 6.71745V7.82112C12.833 8.3607 12.395 8.79879 11.8554 8.79879H11.2195C11.1338 8.79879 11.0749 8.86762 11.0486 8.93179C11.048 8.93237 11.041 8.94987 11.0405 8.95104C11.0136 9.01579 11.0066 9.1062 11.0673 9.16687L11.517 9.61604C11.8985 9.99929 11.8985 10.6211 11.517 11.0026L10.7354 11.7843C10.5499 11.9698 10.3043 12.0713 10.0424 12.0713H10.0412C9.7793 12.0713 9.53255 11.9692 9.34763 11.7831L8.90138 11.3345C8.84013 11.2733 8.74913 11.2803 8.68497 11.3071C8.5998 11.3427 8.53155 11.401 8.53155 11.4868V12.1191C8.53155 12.6605 8.09113 13.1009 7.5498 13.1009ZM7.00001 6.39254C6.51759 6.39254 6.12501 6.78512 6.12501 7.26754C6.12501 7.74995 6.51759 8.14254 7.00001 8.14254C7.48242 8.14254 7.87501 7.74995 7.87501 7.26754C7.87501 6.78512 7.48242 6.39254 7.00001 6.39254ZM7 9.3092C5.87417 9.3092 4.95834 8.39337 4.95834 7.26754C4.95834 6.1417 5.87417 5.22587 7 5.22587C8.12584 5.22587 9.04167 6.1417 9.04167 7.26754C9.04167 8.39337 8.12584 9.3092 7 9.3092Z" fill="#231F20"/>
<mask id="mask0" mask-type="alpha" maskUnits="userSpaceOnUse" x="1" y="1" width="12" height="13">
<path fill-rule="evenodd" clip-rule="evenodd" d="M6.63513 11.9342H7.36488V11.4868C7.36488 10.9414 7.7003 10.4514 8.21888 10.2373C8.75555 10.0139 9.3418 10.1235 9.72797 10.512L10.0424 10.8276L10.5604 10.3096L10.2425 9.99229C9.85571 9.60612 9.74663 9.02045 9.96422 8.5007C9.96422 8.5007 9.9648 8.50012 9.9648 8.49954L9.97122 8.4832C10.1835 7.96812 10.6741 7.63212 11.2195 7.63212H11.6664V6.90295H11.2195C10.6741 6.90295 10.1835 6.56754 9.97005 6.04895C9.74547 5.51229 9.85571 4.92604 10.2442 4.53929L10.5598 4.22487L10.0424 3.70745L9.72446 4.02537C9.3383 4.41154 8.75321 4.52062 8.23346 4.30362C7.70088 4.0837 7.36488 3.5937 7.36488 3.04829V2.60087H6.63513V3.04829C6.63513 3.5937 6.29972 4.0837 5.78113 4.29779C5.24505 4.52237 4.6588 4.41212 4.27205 4.02304L3.95763 3.70745L3.43963 4.22545L3.75755 4.54279C4.14372 4.92895 4.25338 5.51462 4.0358 6.03437C3.81647 6.56695 3.32588 6.90295 2.78047 6.90295H2.33305V7.63212H2.78047C3.32588 7.63212 3.81647 7.96754 4.02997 8.48612C4.25455 9.02279 4.1443 9.60904 3.7558 9.99579L3.44022 10.3102L3.95763 10.8276L4.27555 10.5097C4.66172 10.1235 5.2468 10.0145 5.76655 10.2315C6.29913 10.4514 6.63513 10.9414 6.63513 11.4868V11.9342ZM7.5498 13.1009H6.44613C5.90713 13.1009 5.46847 12.6622 5.46847 12.1232V11.4868C5.46847 11.401 5.40022 11.3421 5.33605 11.3159C5.25205 11.2815 5.16222 11.2745 5.10038 11.3345L4.65122 11.7843C4.26855 12.1658 3.64672 12.167 3.26463 11.7843L2.48297 11.0026C2.29747 10.8171 2.19597 10.571 2.19597 10.3085C2.19655 10.0465 2.29863 9.80037 2.48472 9.61487L2.93272 9.16862C2.99397 9.10737 2.98755 9.01754 2.96013 8.95279C2.92513 8.86704 2.8668 8.79879 2.78047 8.79879H2.14813C1.6068 8.79879 1.16638 8.35895 1.16638 7.81762V6.71395C1.16638 6.17437 1.60505 5.73629 2.14463 5.73629H2.78047C2.86622 5.73629 2.92513 5.66745 2.95138 5.60329C2.98638 5.51929 2.99338 5.42887 2.93272 5.3682L2.48297 4.91904C2.10147 4.53579 2.10147 3.91395 2.48297 3.53245L3.26463 2.75079C3.45013 2.56529 3.69572 2.46379 3.95763 2.46379H3.9588C4.22072 2.46379 4.46747 2.56587 4.65238 2.75195L5.09863 3.20054C5.15988 3.26237 5.2503 3.25537 5.31505 3.22795C5.40022 3.19237 5.46847 3.13404 5.46847 3.04829V2.41595C5.46847 1.87462 5.90888 1.4342 6.45022 1.4342H7.55388C8.09288 1.4342 8.53155 1.87287 8.53155 2.41187V3.04829C8.53155 3.13404 8.5998 3.19295 8.66397 3.2192C8.74855 3.2542 8.83838 3.26179 8.89963 3.20054L9.3488 2.75079C9.73147 2.36929 10.3533 2.36812 10.7354 2.75079L11.5176 3.53304C11.7031 3.71795 11.8046 3.96412 11.804 4.22662C11.804 4.48795 11.702 4.7347 11.5159 4.91962L11.0673 5.36645C11.006 5.4277 11.0125 5.51754 11.0399 5.58229C11.0749 5.66804 11.1332 5.73629 11.2195 5.73629H11.8519C12.3932 5.73629 12.833 6.17612 12.833 6.71745V7.82112C12.833 8.3607 12.395 8.79879 11.8554 8.79879H11.2195C11.1338 8.79879 11.0749 8.86762 11.0486 8.93179C11.048 8.93237 11.041 8.94987 11.0405 8.95104C11.0136 9.01579 11.0066 9.1062 11.0673 9.16687L11.517 9.61604C11.8985 9.99929 11.8985 10.6211 11.517 11.0026L10.7354 11.7843C10.5499 11.9698 10.3043 12.0713 10.0424 12.0713H10.0412C9.7793 12.0713 9.53255 11.9692 9.34763 11.7831L8.90138 11.3345C8.84013 11.2733 8.74913 11.2803 8.68497 11.3071C8.5998 11.3427 8.53155 11.401 8.53155 11.4868V12.1191C8.53155 12.6605 8.09113 13.1009 7.5498 13.1009ZM7.00001 6.39254C6.51759 6.39254 6.12501 6.78512 6.12501 7.26754C6.12501 7.74995 6.51759 8.14254 7.00001 8.14254C7.48242 8.14254 7.87501 7.74995 7.87501 7.26754C7.87501 6.78512 7.48242 6.39254 7.00001 6.39254ZM7 9.3092C5.87417 9.3092 4.95834 8.39337 4.95834 7.26754C4.95834 6.1417 5.87417 5.22587 7 5.22587C8.12584 5.22587 9.04167 6.1417 9.04167 7.26754C9.04167 8.39337 8.12584 9.3092 7 9.3092Z" fill="white"/>
</mask>
<g mask="url(#mask0)">
<rect y="0.267578" width="14" height="14" fill="#0D1C2E"/>
</g>
</svg>
