<svg width="12" height="12" viewBox="0 0 12 12" fill="none" xmlns="http://www.w3.org/2000/svg">
<path fill-rule="evenodd" clip-rule="evenodd" d="M3.08333 7.75H3.95833C4.11942 7.75 4.25 7.88058 4.25 8.04167V8.625C4.25 8.78608 4.11942 8.91667 3.95833 8.91667H1.04167C0.880584 8.91667 0.75 8.78608 0.75 8.625V8.04167C0.75 7.88058 0.880584 7.75 1.04167 7.75H1.91667V1.04167C1.91667 0.880584 2.04725 0.75 2.20833 0.75H2.79167C2.95275 0.75 3.08333 0.880584 3.08333 1.04167V7.75ZM5.70833 11.25C5.54725 11.25 5.41667 11.1194 5.41667 10.9583V4.25H6.58333V10.9583C6.58333 11.1194 6.45275 11.25 6.29167 11.25H5.70833ZM3.08333 10.0833H1.91667V10.9583C1.91667 11.1194 2.04725 11.25 2.20833 11.25H2.79167C2.95275 11.25 3.08333 11.1194 3.08333 10.9583V10.0833ZM8.91667 10.9583C8.91667 11.1194 9.04725 11.25 9.20833 11.25H9.79167C9.95275 11.25 10.0833 11.1194 10.0833 10.9583V7.75H8.91667V10.9583ZM7.75 2.20833C7.75 2.04725 7.61942 1.91667 7.45833 1.91667H6.58333V1.04167C6.58333 0.880584 6.45275 0.75 6.29167 0.75H5.70833C5.54725 0.75 5.41667 0.880584 5.41667 1.04167V1.91667H4.54167C4.38058 1.91667 4.25 2.04725 4.25 2.20833V2.79167C4.25 2.95275 4.38058 3.08333 4.54167 3.08333H7.45833C7.61942 3.08333 7.75 2.95275 7.75 2.79167V2.20833ZM10.0833 5.41667H10.9583C11.1194 5.41667 11.25 5.54725 11.25 5.70833V6.29167C11.25 6.45275 11.1194 6.58333 10.9583 6.58333H8.04167C7.88058 6.58333 7.75 6.45275 7.75 6.29167V5.70833C7.75 5.54725 7.88058 5.41667 8.04167 5.41667H8.91667V1.04167C8.91667 0.880584 9.04725 0.75 9.20833 0.75H9.79167C9.95275 0.75 10.0833 0.880584 10.0833 1.04167V5.41667Z" fill="black"/>
</svg>
