<svg width="12" height="10" viewBox="0 0 12 10" fill="none" xmlns="http://www.w3.org/2000/svg">
<path fill-rule="evenodd" clip-rule="evenodd" d="M6.87104 0.399826L6.92166 0.40327C8.91278 0.723593 10.5972 2.04966 11.376 3.90994C12.1548 5.77023 11.9174 7.90081 10.7483 9.5441C10.6926 9.62066 10.6038 9.66615 10.5092 9.66661C10.4124 9.66707 10.3179 9.64078 10.2358 9.59132L10.1767 9.54994L9.84416 9.2816C9.72086 9.18362 9.69762 9.00544 9.79166 8.8791C10.726 7.57741 10.9272 5.88737 10.3246 4.40269C9.72197 2.918 8.39978 1.84632 6.8225 1.5641C6.70051 1.54393 6.60744 1.4484 6.58735 1.33017L6.58333 1.27827V0.694936C6.58054 0.608438 6.61963 0.525903 6.68833 0.47327C6.73875 0.427095 6.80382 0.401362 6.87104 0.399826ZM1.1175 6.7499C1.25793 6.75042 1.37806 6.85093 1.40333 6.98907C1.52447 7.67208 1.79979 8.31847 2.20833 8.87907C2.30238 9.00541 2.27913 9.18358 2.15583 9.28157L1.82333 9.5499C1.72925 9.62594 1.6118 9.66715 1.49083 9.66658C1.39616 9.66612 1.30736 9.62063 1.25167 9.54407C0.732075 8.81331 0.386851 7.9732 0.2425 7.08824C0.229004 7.00385 0.254782 6.91792 0.3125 6.8549C0.365133 6.78621 0.447669 6.74711 0.534167 6.7499H1.1175ZM8.28948 3.53689C8.18161 3.46931 8.03868 3.48057 7.9425 3.57068L5.02583 5.97985L4.97451 6.02759C4.87823 6.12862 4.82078 6.26152 4.81412 6.40247C4.80634 6.5669 4.8684 6.72697 4.985 6.84318L5.3175 7.17568L5.36987 7.22227C5.47953 7.30858 5.61727 7.35323 5.75821 7.34656C5.92265 7.33878 6.07614 7.26189 6.18083 7.13485L8.59 4.21818L8.62327 4.17529C8.69012 4.06977 8.68136 3.92995 8.59583 3.83318L8.33333 3.57068L8.28948 3.53689ZM3.375 5.58334C3.51818 5.58334 3.63727 5.68651 3.66196 5.82258L3.66666 5.875V6.45834C3.66666 6.60152 3.56349 6.72061 3.42742 6.7453L3.375 6.75H2.79166C2.64848 6.75 2.52939 6.64683 2.5047 6.51076L2.5 6.45834V5.875C2.5 5.73182 2.60317 5.61273 2.73924 5.58804L2.79166 5.58334H3.375ZM9.4953 5.82258C9.4706 5.68651 9.35151 5.58334 9.20833 5.58334H8.625L8.57257 5.58804C8.43651 5.61273 8.33333 5.73182 8.33333 5.875V6.45834L8.33803 6.51076C8.36273 6.64683 8.48181 6.75 8.625 6.75H9.20833L9.26076 6.7453C9.39682 6.72061 9.5 6.60152 9.5 6.45834V5.875L9.4953 5.82258ZM5.07834 0.409148C5.16272 0.395652 5.24865 0.42143 5.31167 0.479148C5.36663 0.521255 5.40264 0.582499 5.41342 0.649599L5.41667 0.700815V1.28415C5.41814 1.42735 5.31341 1.54953 5.17167 1.56998C3.25305 1.92436 1.75188 3.42553 1.3975 5.34415C1.37733 5.46614 1.2818 5.55921 1.16358 5.5793L1.11167 5.58331H0.528338C0.442863 5.5875 0.360519 5.55066 0.306671 5.48415C0.248953 5.42113 0.223174 5.3352 0.236671 5.25081C0.633997 2.75986 2.58738 0.806474 5.07834 0.409148ZM6.57863 2.90591C6.55393 2.76985 6.43485 2.66667 6.29166 2.66667H5.70833L5.6559 2.67137C5.51984 2.69607 5.41666 2.81515 5.41666 2.95834V3.54167L5.42136 3.5941C5.44606 3.73016 5.56515 3.83334 5.70833 3.83334H6.29166L6.34409 3.82864C6.48015 3.80394 6.58333 3.68485 6.58333 3.54167V2.95834L6.57863 2.90591Z" fill="black"/>
</svg>
