<svg width="12" height="10" viewBox="0 0 12 10" fill="none" xmlns="http://www.w3.org/2000/svg">
<path fill-rule="evenodd" clip-rule="evenodd" d="M8.91766 8.46499C8.2838 8.38181 7.69407 8.09524 7.23709 7.64832L2.76722 3.17999C2.43924 2.8517 1.99427 2.66706 1.53013 2.66665H1.03997C0.878828 2.66665 0.748199 2.53607 0.748199 2.37499V1.79165C0.748199 1.63057 0.878828 1.49999 1.03997 1.49999H1.53013C2.30448 1.4986 3.04761 1.80499 3.59584 2.35165L5.41646 4.17749L7.23709 2.35165C7.69407 1.90474 8.2838 1.61816 8.91766 1.53499V0.33332C8.91697 0.215572 8.98717 0.108957 9.09564 0.063035C9.2041 0.0171131 9.32955 0.0408927 9.41366 0.12332L11.1643 1.87332C11.2762 1.98871 11.2762 2.1721 11.1643 2.28749L9.41366 4.03749C9.33031 4.11919 9.20626 4.14335 9.09831 4.09892C8.99036 4.05449 8.9193 3.95001 8.91766 3.83332V2.71332C8.59532 2.78541 8.29996 2.9472 8.0657 3.17999L6.23924 4.99999L8.0657 6.81999C8.29996 7.05277 8.59532 7.21456 8.91766 7.28665V6.16665C8.91697 6.0489 8.98717 5.94229 9.09564 5.89637C9.2041 5.85045 9.32955 5.87423 9.41366 5.95665L11.1643 7.70665C11.2762 7.82204 11.2762 8.00543 11.1643 8.12082L9.41366 9.87082C9.33031 9.95252 9.20626 9.97669 9.09831 9.93225C8.99036 9.88782 8.9193 9.78334 8.91766 9.66665V8.46499ZM3.59584 7.64834L4.69872 6.54L3.87594 5.7175L2.76722 6.82C2.43924 7.14829 1.99427 7.33293 1.53013 7.33334H1.03997C0.878828 7.33334 0.748199 7.46392 0.748199 7.625V8.20834C0.748199 8.36942 0.878828 8.5 1.03997 8.5H1.53013C2.30448 8.50139 3.04761 8.195 3.59584 7.64834Z" fill="black"/>
</svg>
