<svg width="14" height="14" viewBox="0 0 14 14" fill="none" xmlns="http://www.w3.org/2000/svg">
<path fill-rule="evenodd" clip-rule="evenodd" d="M10.9027 9.31185L7.58356 10.8542V6.93651L11.0836 5.31076V9.06451C11.0836 9.16601 11.0147 9.26051 10.9027 9.31185ZM3.09365 9.31243C2.9834 9.2611 2.91573 9.1666 2.9169 9.06043V5.31076L6.4169 6.93651V10.8553L3.09365 9.31243ZM6.82932 2.95389C6.8824 2.92881 6.94132 2.91656 7.00023 2.91656C7.05857 2.91656 7.11748 2.92881 7.17057 2.95389L10.2791 4.39706L7.00023 5.92073L3.72073 4.39706L6.82932 2.95389ZM12.0496 4.2345C12.0478 4.22983 12.0484 4.22458 12.0461 4.21991C12.0443 4.21525 12.0396 4.21233 12.0367 4.20766C12.0099 4.16333 11.9772 4.12425 11.9463 4.08342C11.9282 4.06358 11.9136 4.04142 11.8938 4.0245C11.7567 3.8635 11.5951 3.72175 11.3945 3.629L7.66115 1.89475C7.66056 1.89475 7.65998 1.89475 7.65998 1.89417C7.24056 1.7005 6.75932 1.70108 6.33873 1.89475L2.60715 3.62842C2.40648 3.72117 2.24431 3.86233 2.10723 4.02333C2.08565 4.04142 2.0699 4.06592 2.05065 4.0875C2.02031 4.12658 1.9894 4.1645 1.96373 4.2065C1.96081 4.21175 1.95615 4.21525 1.95381 4.21991C1.95148 4.22516 1.95206 4.23042 1.94973 4.23567C1.82665 4.44683 1.75023 4.68425 1.75023 4.93392V9.05633C1.74556 9.6105 2.07923 10.1262 2.60073 10.37L6.33348 12.1037C6.54465 12.2022 6.77098 12.2512 6.9979 12.2512C7.22423 12.2512 7.45056 12.2022 7.66115 12.1042L11.3927 10.3706C11.9131 10.1302 12.2496 9.61808 12.2502 9.06508V4.93333C12.2496 4.68367 12.1732 4.44625 12.0496 4.2345Z" fill="#231F20"/>
<mask id="mask0" mask-type="alpha" maskUnits="userSpaceOnUse" x="1" y="1" width="12" height="12">
<path fill-rule="evenodd" clip-rule="evenodd" d="M10.9027 9.31185L7.58356 10.8542V6.93651L11.0836 5.31076V9.06451C11.0836 9.16601 11.0147 9.26051 10.9027 9.31185ZM3.09365 9.31243C2.9834 9.2611 2.91573 9.1666 2.9169 9.06043V5.31076L6.4169 6.93651V10.8553L3.09365 9.31243ZM6.82932 2.95389C6.8824 2.92881 6.94132 2.91656 7.00023 2.91656C7.05857 2.91656 7.11748 2.92881 7.17057 2.95389L10.2791 4.39706L7.00023 5.92073L3.72073 4.39706L6.82932 2.95389ZM12.0496 4.2345C12.0478 4.22983 12.0484 4.22458 12.0461 4.21991C12.0443 4.21525 12.0396 4.21233 12.0367 4.20766C12.0099 4.16333 11.9772 4.12425 11.9463 4.08342C11.9282 4.06358 11.9136 4.04142 11.8938 4.0245C11.7567 3.8635 11.5951 3.72175 11.3945 3.629L7.66115 1.89475C7.66056 1.89475 7.65998 1.89475 7.65998 1.89417C7.24056 1.7005 6.75932 1.70108 6.33873 1.89475L2.60715 3.62842C2.40648 3.72117 2.24431 3.86233 2.10723 4.02333C2.08565 4.04142 2.0699 4.06592 2.05065 4.0875C2.02031 4.12658 1.9894 4.1645 1.96373 4.2065C1.96081 4.21175 1.95615 4.21525 1.95381 4.21991C1.95148 4.22516 1.95206 4.23042 1.94973 4.23567C1.82665 4.44683 1.75023 4.68425 1.75023 4.93392V9.05633C1.74556 9.6105 2.07923 10.1262 2.60073 10.37L6.33348 12.1037C6.54465 12.2022 6.77098 12.2512 6.9979 12.2512C7.22423 12.2512 7.45056 12.2022 7.66115 12.1042L11.3927 10.3706C11.9131 10.1302 12.2496 9.61808 12.2502 9.06508V4.93333C12.2496 4.68367 12.1732 4.44625 12.0496 4.2345Z" fill="white"/>
</mask>
<g mask="url(#mask0)">
<rect width="14" height="14" fill="#0D1C2E"/>
</g>
</svg>
