<svg width="12" height="10" viewBox="0 0 12 10" fill="none" xmlns="http://www.w3.org/2000/svg">
<path fill-rule="evenodd" clip-rule="evenodd" d="M6.58285 4.0252V3.83827C6.58285 3.19302 7.10474 2.66995 7.74853 2.66995H8.43629C8.72015 3.47466 9.54116 3.95737 10.3805 3.81303C11.2198 3.6687 11.8333 2.93931 11.8333 2.08578C11.8333 1.23226 11.2198 0.502865 10.3805 0.358533C9.54116 0.2142 8.72015 0.696908 8.43629 1.50162H7.74853C6.60493 1.50451 5.63225 2.33835 5.45213 3.47025C5.86642 3.56614 6.25324 3.75599 6.58285 4.0252ZM11.8284 7.92742C11.8219 7.07922 11.2101 6.35748 10.376 6.21384C9.54195 6.0702 8.72496 6.5459 8.43629 7.34326H7.74853C7.10474 7.34326 6.58285 6.82018 6.58285 6.17493C6.58028 5.74262 6.41836 5.32652 6.12823 5.00661C5.7987 4.63733 5.32862 4.42511 4.83432 4.42245H3.56372C3.27986 3.61773 2.45885 3.13503 1.61952 3.27936C0.780187 3.42369 0.166672 4.15308 0.166672 5.00661C0.166672 5.86013 0.780187 6.58953 1.61952 6.73386C2.45885 6.87819 3.27986 6.39548 3.56372 5.59077H4.83432C5.15622 5.59077 5.41716 5.85231 5.41716 6.17493C5.41716 7.46543 6.46095 8.51159 7.74853 8.51159H8.43629C8.72496 9.30895 9.54195 9.78465 10.376 9.64101C11.2101 9.49737 11.8219 8.77563 11.8284 7.92742ZM1.92011 5.59075C1.59821 5.59075 1.33727 5.32921 1.33727 5.00659C1.33727 4.68396 1.59821 4.42243 1.92011 4.42243C2.242 4.42243 2.50295 4.68396 2.50295 5.00659C2.50295 5.32921 2.242 5.59075 1.92011 5.59075ZM9.49706 7.92742C9.49706 8.25004 9.758 8.51158 10.0799 8.51158C10.4018 8.51158 10.6627 8.25004 10.6627 7.92742C10.6627 7.60479 10.4018 7.34325 10.0799 7.34325C9.758 7.34325 9.49706 7.60479 9.49706 7.92742ZM10.6627 2.08576C10.6627 1.76314 10.4018 1.5016 10.0799 1.5016C9.758 1.5016 9.49706 1.76314 9.49706 2.08576C9.49706 2.40839 9.758 2.66993 10.0799 2.66993C10.4018 2.66993 10.6627 2.40839 10.6627 2.08576Z" fill="black"/>
</svg>
