<svg width="12" height="12" viewBox="0 0 12 12" fill="none" xmlns="http://www.w3.org/2000/svg">
<path fill-rule="evenodd" clip-rule="evenodd" d="M9.41474 0.901431L11.1647 2.64994C11.2788 2.76754 11.2762 2.9552 11.1589 3.06959L9.40891 4.8181C9.32482 4.90046 9.19941 4.92422 9.09099 4.87833C8.98256 4.83245 8.91238 4.72593 8.91307 4.60828V3.4426H3.07974V6.06537C3.07974 6.22632 2.94916 6.35679 2.78807 6.35679H2.20474C2.04366 6.35679 1.91307 6.22632 1.91307 6.06537V3.4426C1.91307 2.79882 2.43541 2.27693 3.07974 2.27693H8.91307V1.11125C8.9099 0.99102 8.98097 0.881188 9.09201 0.834746C9.20306 0.788303 9.33124 0.814791 9.41474 0.901431ZM10.0797 9.27108V6.64831C10.0797 6.48736 9.94916 6.35689 9.78807 6.35689H9.20474C9.04366 6.35689 8.91307 6.48736 8.91307 6.64831V9.27108H8.87807H3.07974V8.1054C3.0781 7.98882 3.00706 7.88443 2.89915 7.84003C2.79124 7.79563 2.66723 7.81978 2.58391 7.90141L0.833905 9.64992C0.722032 9.76522 0.722032 9.94845 0.833905 10.0637L2.58391 11.8123C2.66799 11.8946 2.7934 11.9184 2.90183 11.8725C3.01025 11.8266 3.08043 11.7201 3.07974 11.6024V10.4368H8.91307C9.5574 10.4368 10.0797 9.91486 10.0797 9.27108Z" fill="black"/>
</svg>
