<svg width="12" height="10" viewBox="0 0 12 10" fill="none" xmlns="http://www.w3.org/2000/svg">
<path fill-rule="evenodd" clip-rule="evenodd" d="M1.07667 5.50171C0.961278 5.61358 0.777894 5.61358 0.662503 5.50171L0.25417 5.08754C0.198954 5.03277 0.167895 4.95823 0.167895 4.88046C0.167895 4.80269 0.198954 4.72814 0.25417 4.67337L3.27 1.66337L2.44167 0.829207C2.35997 0.745878 2.3358 0.62187 2.38024 0.51396C2.42467 0.40605 2.52915 0.335013 2.64584 0.333374H5.125C5.28354 0.339363 5.41068 0.466505 5.41667 0.625041V3.10421C5.41736 3.22196 5.34718 3.32857 5.23876 3.37449C5.13033 3.42041 5.00493 3.39663 4.92084 3.31421L4.0925 2.48587L1.07667 5.50171ZM11.5417 2.66671C11.7028 2.66671 11.8333 2.53612 11.8333 2.37504V1.79171C11.8333 1.63062 11.7028 1.50004 11.5417 1.50004H9.50001C9.17784 1.50004 8.91667 1.76121 8.91667 2.08337V3.83337H7.16667C6.84451 3.83337 6.58334 4.09454 6.58334 4.41671V6.16671H4.83334C4.51117 6.16671 4.25001 6.42787 4.25001 6.75004V8.50004H0.458338C0.297255 8.50004 0.166672 8.63062 0.166672 8.79171V9.37504C0.166672 9.53612 0.297255 9.66671 0.458338 9.66671H4.83334C5.1555 9.66671 5.41667 9.40554 5.41667 9.08337V7.33337H7.16667C7.48884 7.33337 7.75001 7.07221 7.75001 6.75004V5.00004H9.50001C9.82217 5.00004 10.0833 4.73887 10.0833 4.41671V2.66671H11.5417Z" fill="black"/>
</svg>
