<svg width="12" height="11" viewBox="0 0 12 11" fill="none" xmlns="http://www.w3.org/2000/svg">
<path fill-rule="evenodd" clip-rule="evenodd" d="M10.0798 6.52039C9.34066 6.52247 8.68264 6.98955 8.43625 7.68705H7.7485C7.10472 7.68705 6.58283 7.16472 6.58283 6.52039V4.18705C6.58283 2.89839 5.53905 1.85372 4.25148 1.85372H3.56374C3.27987 1.05015 2.45887 0.568128 1.61955 0.712256C0.780227 0.856384 0.166718 1.58474 0.166718 2.43705C0.166718 3.28937 0.780227 4.01772 1.61955 4.16185C2.45887 4.30598 3.27987 3.82396 3.56374 3.02039H4.25148C4.89527 3.02039 5.41716 3.54272 5.41716 4.18705V6.52039C5.41716 7.80905 6.46094 8.85372 7.7485 8.85372H8.43625C8.73286 9.69337 9.61222 10.1762 10.4791 9.97529C11.346 9.77443 11.9239 8.95399 11.8217 8.06931C11.7194 7.18462 10.9697 6.51789 10.0798 6.52039ZM1.92014 3.0204C1.59825 3.0204 1.3373 2.75924 1.3373 2.43707C1.3373 2.1149 1.59825 1.85374 1.92014 1.85374C2.24203 1.85374 2.50297 2.1149 2.50297 2.43707C2.50297 2.75924 2.24203 3.0204 1.92014 3.0204ZM9.49701 8.2704C9.49701 8.59257 9.75796 8.85374 10.0798 8.85374C10.4017 8.85374 10.6627 8.59257 10.6627 8.2704C10.6627 7.94824 10.4017 7.68707 10.0798 7.68707C9.75796 7.68707 9.49701 7.94824 9.49701 8.2704Z" fill="black"/>
</svg>
